<?xml version="1.0" encoding="utf-8"?>
<!-- Generator: Adobe Illustrator 24.3.0, SVG Export Plug-In . SVG Version: 6.00 Build 0)  -->
<svg version="1.1" id="Layer_1" xmlns:v="https://vecta.io/nano"
	 xmlns="http://www.w3.org/2000/svg" xmlns:xlink="http://www.w3.org/1999/xlink" x="0px" y="0px" viewBox="0 0 43.1 26.5"
	 style="enable-background:new 0 0 43.1 26.5;" xml:space="preserve">
<style type="text/css">
    	.st182{fill:none;stroke:#00E054;stroke-width:1.5;stroke-linejoin:round;}
	.st181{fill-rule:evenodd;clip-rule:evenodd;fill:#00E054;stroke:#00E054;}
</style>
<g>
	<g transform="translate(-.001)">
	</g>
	<g>
		<path class="st181" d="M21.4,1C13.9,1,8.1,5.7,0.9,13.3c6.2,6.5,11.4,12.3,20.5,12.3s15.9-7.3,20.5-12.2C37.2,7.8,30.5,1,21.4,1
			L21.4,1z M21.4,21.7c-4.7,0-8.5-3.8-8.5-8.4s3.8-8.4,8.5-8.4s8.5,3.8,8.5,8.4S26.1,21.7,21.4,21.7L21.4,21.7z M21.4,8.6
			c-2.6,0-4.8,2.1-4.8,4.7s2.1,4.7,4.8,4.7s4.8-2.1,4.8-4.7S24.1,8.6,21.4,8.6L21.4,8.6z"/>
		<path class="st182" d="M0.9,13.3c6.2,6.5,11.4,12.3,20.5,12.3s15.9-7.3,20.5-12.2C37.2,7.8,30.5,1,21.4,1C13.9,1,8.1,5.7,0.9,13.3
			z"/>
	</g>
</g>
</svg>
