<svg xmlns="http://www.w3.org/2000/svg" viewBox="0 0 26 26">
  <defs>
    <style>
      .cls-1 {
        fill: #fff;
      }

      .cls-1, .cls-2, .cls-3 {
        fill-rule: evenodd;
      }

      .cls-2 {
        fill: #00C030;
      }
    </style>
  </defs>
  <g id="Layer_2" data-name="Layer 2">
    <g id="Layer_1-2" data-name="Layer 1">
      <g>
        <path id="AL" class="cls-1" d="M11.76,18.85l5.23,4c1.14.86,2.24.47,2.5-.55.35,1.71-1,2.65-2.5,1.55h0l-5.23-4-5.23,4C5.07,24.91,3.68,24,4,22.26c.25,1,1.35,1.41,2.49.55ZM.88,10.57l5.22,4-.25.81-5-3.79a1.77,1.77,0,0,1-.79-2,2.34,2.34,0,0,0,.79,1Zm22.55-1a1.76,1.76,0,0,1-.79,2h0l-5,3.79-.25-.81,5.22-4a2.19,2.19,0,0,0,.74-.9Z"/>
        <path id="AM" class="cls-2" d="M10.27,1.17a1.53,1.53,0,0,1,3,0h0l2,6.43h6.47c1.89,0,2.45,1.8.92,3h0l-5.22,4,2,6.42c.58,1.89-.88,3-2.42,1.84h0l-5.23-4-5.23,4C5,24,3.53,22.86,4.11,21h0l2-6.42-5.22-4c-1.53-1.17-1-3,.92-3H8.25Z"/>
        <path id="AN" class="cls-3" d="M.09,9.56c-.35-1,.32-1.95,1.71-2H8.25l2-6.43a1.53,1.53,0,0,1,3,0l2,6.43h6.47c1.39,0,2.06,1,1.71,2a1.71,1.71,0,0,0-1.71-1H15.25l-2-6.43a1.53,1.53,0,0,0-3,0l-2,6.43H1.8a1.73,1.73,0,0,0-1.71,1Zm5.76,5.8L4.11,21A2.42,2.42,0,0,0,4,22.26L4.11,22l2-6.42-.25-.19Zm13.64,6.9A2.43,2.43,0,0,0,19.41,21l-1.73-5.61-.26.19,2,6.42.08.29Z"/>
      </g>
    </g>
  </g>
</svg>
