<?xml version="1.0" encoding="utf-8"?>
<!-- Generator: Adobe Illustrator 24.3.0, SVG Export Plug-In . SVG Version: 6.00 Build 0)  -->
<svg version="1.1" id="Layer_1" xmlns:v="https://vecta.io/nano"
	 xmlns="http://www.w3.org/2000/svg" xmlns:xlink="http://www.w3.org/1999/xlink" viewBox="-5 -2 69 59.8"
	 style="enable-background:new 0 0  69 59.8;" xml:space="preserve" width="69px" height="59.8px">
<style type="text/css">
    .st175{fill:none;stroke:#3F4E5A;stroke-width:1.5;stroke-linecap:round;stroke-linejoin:round;}
    .st149{fill-rule:evenodd;clip-rule:evenodd;fill:#BBCCDD;}
    .st174{fill-rule:evenodd;clip-rule:evenodd;fill:#3F4E5A;}
    	.st172{fill-rule:evenodd;clip-rule:evenodd;fill:#40BCF4;stroke:#40BCF4;stroke-width:1.5;stroke-linejoin:round;}
</style>
<g>
	<g transform="translate(-.001)">
	</g>
	<g>
		<g>
			<path id="Bs_1_" class="st172" d="M28.5,14.9c0-7.8-6.3-14.1-14-14.1s-14,6.3-14,14.1S6.8,29,14.5,29c2.3,0,4.5-0.6,6.4-1.5
				c-0.7-1.2-1-2.6-1-4.1c0-4.7,3.8-8.5,8.4-8.5L28.5,14.9L28.5,14.9L28.5,14.9z"/>
		</g>
	</g>
	<g>
		<path id="Bq_1_" class="st174" d="M15.7,15.9c-0.7,0.7-1.8,0.7-2.4,0c-0.7-0.7-0.7-1.8,0-2.5s1.8-0.7,2.4,0
			C16.4,14.1,16.3,15.2,15.7,15.9"/>
	</g>
	<path class="st175" d="M7.7,13.3l6.8,1.8l6.7-6.4"/>
	<path class="st149" d="M31.7,22.7V24h-7v-1.2H31.7z M28.2,29.8c3.5,0,6.3-2.9,6.3-6.4s-2.8-6.4-6.3-6.4s-6.3,2.9-6.3,6.4
		S24.7,29.8,28.2,29.8z"/>
</g>
</svg>
