<?xml version="1.0" encoding="utf-8"?>
<!-- Generator: Adobe Illustrator 24.3.0, SVG Export Plug-In . SVG Version: 6.00 Build 0)  -->
<svg version="1.1" id="Layer_1" xmlns="http://www.w3.org/2000/svg" xmlns:xlink="http://www.w3.org/1999/xlink" x="0px" y="0px"
	 viewBox="0 0 500 38.3" style="enable-background:new 0 0 500 38.3;"  width="320px" height="40px" xml:space="preserve">
<style type="text/css">
	.st0{fill:#EDED0F;}
</style>
<g>
	<path class="st0" d="M14,34.2l-0.1,0.5l-0.4,0.4l-1.1,0.3l-1.2,0.1l-2.9-0.1l-3.2,0.1l-1.6-0.6l-0.4-0.5L3,34.1l0.2-0.9L6,32
		l0.2-0.2l0.2-0.4l0.4-2.9v-1.7l0.5-0.2l-0.1-0.9l-0.4-0.2l0.3-0.1l0.1-0.9l-0.2-1.2l0-0.1l0.2,0l-0.2-1.4l0.1,0v-0.6l0-1l-0.5-0.3
		v-2.1l0.4,0l0.2-0.2l-0.6-0.6l0-1.2l0.2-0.1L7,15.1l0.1-0.6L7,14.4l0-0.6l0.3-0.1l0.1,0l0.2,0.6l0.9,2.3l-0.2,0.3l0.1,0.4h0.2v0.2
		l0.1,0.1l-0.1,0.3l0.2,0.2l0.2,0l0.4,0.9H9.2l-0.1,0.1l0.6,0.3l0.1,0.1l0.2,1.8l-0.2,0.2l0.1,0.8l0.4,8.9l-0.8,0.4l0.2,0.9l-0.3,0
		l0.8,0.4l0.1-0.2l0.5,0l0.6-0.4l0.1,0.2l0.9,0l0.8,0.3l0.5,0.5L14,34.2z M24.9,15.8L24.8,17l-0.4,1.7l-1,2.9l-0.4,0.7L23,22.8
		l-0.2,0v0.7L22.7,24l-0.3,0.7l-0.2,0.6l-0.6,1.1l-0.1,0.5l0.2,0.1l-0.3,0.1l-0.1,0.6l0,0.4l-0.3,0l-0.9,1.1v0.4l-0.5,0.3l-0.1,0.2
		l-0.9,0.7l0,0.5l-0.1,0.1v0.2l-0.1-0.1l-0.3,0l-0.2,0.3h-0.3v0.2l0.2-0.2l0.5,0.2l-0.4,0.7v0.6l0.3,0l0.2,0.2l0.4-0.1l-0.1,0.3h0.2
		l0.2-0.5h0.2l0.1-0.7l0.3-0.2v-0.1l0.4,0l-0.3,1l-0.4,0l-0.1,0.4L18.9,34l-0.4,0.3l-0.4-0.3l-0.2,0l-0.4,0.6l-0.5-1.3l0.2-0.4
		l-0.3-0.3l0.6-0.3l-0.3-0.4l0.4-0.2v-0.3l-0.8,0.3l-0.1-0.3l0.3-0.1v-0.3l-0.6-0.5l-0.1-1.1L16,28.9l0.1-0.1l-0.2-1.1l0.1-0.8
		l-0.2-0.1l0.2-0.4l-0.2-0.2l0-0.1h-0.4l-0.2,0.1l0,0.2l0.2,0.2l-0.1,0.1l0,0.5l-0.9-0.4l0.4-0.1l0-0.9L14,25.4h-0.3l-3-7.9v-1.1
		l-0.7-0.3l0-0.3l-0.3-0.7l0.3,0v-0.4l-0.4-0.5l0-0.4l-0.2,0l0.1-0.2l-0.2-0.4h0l0-0.2l-0.2-0.2l0-0.2l-0.2-0.3l0-0.1l-0.2-0.3
		l0.2-0.1l-0.6-1.4l0.1-0.1L8.5,9.8L8,9.6l0.3-0.1L8.1,8.9l0.2-0.3L8.1,7.8L7.2,7.7l0,0.1l0.2,0.1l0.2,0.2H7L5.8,7l-2-0.9L3.4,5.8
		L3.1,5.4L3.1,4.9l0.1-0.7l0.2-0.3l1.3-0.3l0.6-0.1l0,0.1L5,3.7L4.9,4L4.6,3.8v0.8l0.5-0.1l0.7-0.3l0.4,0l0.2-0.2h0.4l0-0.2L7,3.7
		l1.4,0.6l0.5,0l0.3-0.1L9.7,4l0.1,0.1l0.3,0.1l0.2-0.3l1,0.1V3.9l0.6,0l0.3-0.3l0.2,0l0,0.2L14,4.3l0.2,0l0.1-0.4l-0.3-0.2l0.6-0.1
		l0.8,0.1l0,0.2l0.2-0.1l0-0.2l0.6,0l0.8,0.3l0.5,0.4l0.8,1.7l0.4,1.3l-0.4,0v0.3L18,7.4L18,8l0.6,0.1l0,0.2h-0.2l0.2,0.2l-0.1,0.3
		h0.1v0.3l0.4,0.4l0-0.4h0.2v0.2l0.2,0l-0.1,0.1h0.3L19.4,10l-0.1-0.1l-0.1,0.3l0.2,0.2l0.6-0.2l0.1,0.2h-0.2l-0.1,0.3l0.3,0.1
		l-0.2,0.5l0.3,0.1h0.1v-0.6l0.3,1.1l-0.2-0.3l-0.4,0.1l-0.1-0.1l0,0.3l0.4,0l0.2,1.4l0.1,0.3l-0.2,0l0.2,0.3l-0.3,0.2l0.4,0.6
		l0.4,0l0.1-0.4l0,0.3l0.5,0l0.6,0.7l0.2-0.1l0.2-0.4l1.4-4.1h0.2l0-0.5l0.6-0.3L24.9,15.8z M9.4,32.7L9,32.6l-0.1,0l0,0.1l0,0.1
		L9.4,32.7z M9.7,20.3L9.4,20l-0.3,0l0,0.3H9.7z M11.5,12.4L11.2,12l0.3-0.1l-0.1-0.4l-0.8-0.1l0.2,0.2v0.4l0.2,0v0.8l0.1-0.3H11.5z
		 M11.8,13.8l-0.1-0.1l0.1,0l-0.4-0.3h-0.2l0.1-0.1l0-0.4h-0.3l0,0.3l-0.3,0.8l0,0.1l0.9,0.5L11.8,13.8z M11.8,15.9h-0.1l-0.1-0.2
		l-0.3,0l-0.2,0.3l0.1,0.4l0.2,0.2l0.2,0l0.2-0.3L11.8,15.9z M11.7,15.3v-0.2L11.5,15v-0.3l-0.3,0.5l0.2,0.1L11.7,15.3z M11.8,17.3
		v-0.5l-0.1,0h-0.2l-0.1,0.1l0,0.1l0,0.2L11.8,17.3z M15.6,24.7L15,24.6l0.4,0.2L15.6,24.7z M15.8,25.7l-0.2-0.6l-0.1,0h-0.2
		l-0.1,0.1v0.3l0.1,0.1L15.8,25.7z M19.4,8.6l-0.2,0.1l0,0.1l-0.2-0.2L19,8.3L19.4,8.6z M19.6,10.8v-0.2h-0.3l0,0.2L19.6,10.8z
		 M21.3,14.1l0-0.1L20.9,14v-0.3l0.4,0V14.1z M21.6,15.3l-0.2-0.1L21,15.3v0.1l0.2,0l0,0.7L21.6,15.3z M40.7,34l-0.1,0.5l-0.5,0.4
		l-1.4,0.5l-1.4,0.1l-0.2,0l-0.5-0.1l0.2-0.1l-0.1-0.6l-0.2-0.1v0.4l-0.8,0.1v0.1h-0.2l-0.4,0.1l-0.4,0l-1.2,0l-2.5,0L30.7,35
		l-0.3-0.3v-0.1l-0.5,0L29.6,35l-0.1-0.4l-1.3,0.3l0,0.4l-0.3,0l0,0.3h-1.2l-2-0.5l-0.5-0.5L24,34l0.1-0.6l0.2-0.4l1.6-0.7l0.2-0.1
		l0.2-0.3l0.2-1.1v-1.2l0.1-0.2l0.4-0.1L27,28.6l-0.1-0.2l-0.1,0.2l-0.1-0.9l0.4-0.4V27l0.6-0.1v-1.7l0.2,0.1l0.1-0.3l-0.5-0.4
		l0,0.2l-0.2,0L27,24.5l-0.2-0.2l0.4-0.1l0-1l0.5-0.2v0.1L28,23l-0.5-0.9l-0.3-0.1l0.2-0.3l-0.1-0.3l-0.2,0.1l-0.2-0.7l0.2-0.4h0.5
		l-0.1-1.2l-0.2,0.1l0,0.7l-0.2,0.1l-0.1-0.1l-0.2-0.4l-0.1-0.4l-0.2-0.2l0-8.6l0.2-0.1V9.5l-0.3-0.1V7.7L26.5,7l-0.1-1.3l0.1-0.6
		l0.2-0.5l-0.1,0l0.1-0.7l0.6-0.2l0,0.1l-0.3,0L27,4.6l0.3,0L27.9,4l0,0.1l1.4-0.6l0.5,0.3l0.4,0l0.5-0.1l0.3-0.1l0.4,0.2l0.2-0.1
		l0.4,0.2l0.3-0.2l0.3,0.2h0.9L33.9,4l0.4-0.2l0.4,0l-0.1,0.3l0.3,0.3L35,3.8l0.4,0.6l0.4-0.5l0.5-0.1V3.5l1.2,0l1.6,0.3L40,4
		l0.2,0.2l0.2,1l0,0.3l-0.2,0.2l-1.9,1l-0.2,0.1L38,7.1l-0.1,1.3l0,2h-0.7l0.1,0.4l0.1,0.1l0,0.5l-0.2,0.9l0.2,0.3l0,0.5l-0.3,0.7
		l0,0.8L36.9,15l-0.4,0.3l0,0.4l-0.4,0.6l0.2,0.4l0.3,0v0.2l0.3-0.3l0-0.2l-0.1-0.1l-0.1-0.5l0.5,0.1l0.1,0.6l0.3,0.1l0.2-0.1
		l0.1,0.2v1.1l-0.1-0.2l-0.3,0.4l0.3,0.2l-0.4,0.6l0.5,0.6l-0.2,0.7l0.2,1.2l-0.1,0.6l-0.4,1.1l0.2,0.2l0.2,0l-0.1,0.4l0.2,0.1
		L37.8,24H38l0,7.3l-0.8-0.5l-0.3,0.4l0.4,0.6l0,0.8l0,0.5l0.3,0l0.3-0.6h0.3l0.1,0.2l0.3-0.3l1.1,0.3l0.6,0.3l0.2,0.3L40.7,34z
		 M27.4,8.2L27,8l0.1,0.3l-0.3,0.4l0.6-0.1L27.4,8.2z M27.9,18.8h-0.6V19l0.6,0.1L27.9,18.8z M33.3,6.5l-0.1-0.3l0-0.7l-0.3-0.2
		l-0.1,0.2L33,5.9l-1.9,0v0.4l-0.5,0.1l-0.4,0.1l-0.3,0.4l0.4,0.1l0.1,0.2l0.2,0.1l0.1-0.4l0.2,0.1L31.1,7l0.3,0.1L31.5,7h0.4
		l0.3-0.2l0.2,0l0.8,0.1L33.3,6.5z M33.4,6V5.3l-0.2-0.1l0,0.3L33.4,6z M35,5l-0.3-0.3l-0.1-0.3l-0.5,0.1l-0.4,0.2L33.5,5l0.4,0.8
		V5.5h0.4l0-0.2l0.2,0L34.7,5H35z M36.4,6.6l-0.2-0.1l0-0.3L35.9,6H35l-1,0.3l-0.5,0.1v0.2l0.9,0.6l0.6,0l0.5,0.1l0.5-0.1L36,6.9
		l-0.1-0.1h0.3L36.4,6.6z M35.4,4.7l-0.4-0.3l0,0.2L35,4.9L35.4,4.7z M37.3,6.2L36.7,6l0.1,0.1l-0.2,0.3L37.3,6.2z M37.6,34.2
		l-0.5,0l-0.4,0.4l0.5,0.6v-0.3l0.2,0L37.6,34.2z M37.3,13v-0.4L37,12.7l0,0.2L37.3,13z M37.8,30.3L37.6,30l-0.1,0.1v0.2l0.1,0.2
		L37.8,30.3z"/>
	<path class="st0" d="M53.3,15.1l-0.1,1.2l-0.3,0.8l-0.5,0l-0.1,0L52,17.5l0,0.2l0.3,0.6L52,18.4l0.2,0.2L52,19.4l0.2-0.1l-3.4,11.5
		l-0.4,0l-0.1,0.4l0.8,0.2l0.1-0.1l0.3,0.7l0.3,0.4l1.8,0.7l0.4,0.3l0.2,0.6v0.1l-0.2,0.7l-0.6,0.6l-1.6,0.4l-4-0.2l0-0.5l-1.6,0.2
		l-0.7,0.2l-0.7-0.1l-0.7-0.2l-0.3-0.3l-0.1-0.4L41.7,34l0-0.4l0.1-0.3l1.8-1l0.9-1.1l0.4-0.3l0.3-0.5l0.1-0.5l0.5-0.1l0.6-0.8
		l0.2-0.4l0.1-0.5l-0.2-0.2l0-0.4l-0.2-0.1l0-0.4l0.4,0l0-0.6h0.4l0.5-1.4l0-1.8l0.4-1.1v-0.6l0.4-0.7l0-0.7h0.7l0.4-0.2l0-0.1
		l0.3-2.6l0.2-0.5l0-0.3l0.1-0.4l0.2,0l0-0.6l-0.3-0.2l0.9-3l0.4-1l0.2-0.2l0.2,0l0.2,0l0.2,0.2l0.3,0.9L53.3,15.1z M73.5,34.2
		l-0.1,0.7l-0.4,0.4l-2,0.4l-0.5,0l-0.2-0.4l-0.4,0l-0.1,0.3l-0.5,0.1l-0.9-0.1l-0.3-0.5l-0.7,0.1l-0.5,0.3l-0.1-0.2l-0.4,0.1
		l-0.3-0.2l0,0.2l0-0.2l-0.6,0l-1,0.2l-0.7-0.1l-1-0.5l-1.3,0.2l-0.3,0.3l-0.2-0.2h-0.3L60,35.4l-1.1,0.3l-1-0.1L57,35.4l-0.3-0.1
		l-0.3-0.3l-0.2-0.6l0-0.4l0.2-0.6l2-1l0.4-0.9l0.3-0.3h-0.2l0-0.4l0.2,0l-0.1-0.4l-0.5-0.3l-0.2-0.9l0.1,0l-0.2-0.8l0.2,0V28
		l0.2-0.1h-0.1l0-0.4l0.5,0.3l0.1,0l0.1-0.1l0.1-0.2L59.4,27l-0.5-0.2l-0.3-0.4l-0.7,0.4l0-0.5l-1.2,0.5l-2.3-0.1v-0.2l-0.3-0.1
		l-0.2,0.1l0-0.3l0.1-0.2l0-0.1l-0.2-0.3l-0.4-0.1l-0.3,0.1l-0.3,0.2l-0.1,0.1l0.1,0.6l-0.3,0.2L52,26.5l-0.2-0.2l0-0.4l0.1-0.7
		l0.6-1.1l0.3-0.5h2.5l1.2-0.2l0.2-0.2l0-0.7l-0.8-3l0.1-0.3l-0.2-0.5l0-1.1l0.1,0l0-0.2l-0.3-0.2l0-0.6l-0.4-0.2l-0.1-1.8l0.1-0.1
		l0-0.5l0.2-0.5h-0.2l-0.3-0.4l0.1-0.2l0.5-0.1l-0.1-0.3h-0.5l-0.2-0.3l0.3,0l0-0.2h-0.2l-0.3-0.5l0.2-0.1l0.1,0.1v-0.8L54,10.5V9.9
		l-0.2,0l-0.3-0.6l0.1-0.4l-0.3-1h0l-0.1-0.3l0.3-0.1l-0.5-0.6l-0.1-0.3L53,6l0.3-0.5l0.4-0.2l0.5-0.1L54,5.9l0.7,0.2l0-0.2l0.9-0.1
		L56.5,6l0.2-0.2L57,6h0.3l0.2-0.5l0-0.1l-0.5,0l-0.5,0.2l0.2-0.6l0,0.3l0.4,0V4.8l0.5,0l4-1.5l0.5-0.1l0.4,0.1l0.8,0.6l0.3,0.7
		l1.6,6.1l-0.7,0l-0.5,0.1l0.2,0.3l0.3,0.1l-0.2,1.1L65,13l-0.2,0.8l0.2,0.5l0.7-0.1l0.1,1.2l0.1,0l0,1.1l1,0.3L66.5,17l0,0.4
		l0.3,0.3l-0.5,0.6l0.2,0.6l0.2,0l0.1,0.1l0.3,0.1l0,1l0,0l0.3,0.2l0,1.3l0.1,0l0.1,0.2l0.4,0.1l0.1,0.2L68,22.5l-0.1,0.2l0.2,0
		l0,0.8h0.3l0.1,0.2l0.3,0l0.1,0.5l-0.3,0.1l0.4,0.1l0.6,2.5l-0.5,0l0.2,0.4l0.4,0.1l0.7,2.7l0.9,1.9l0.3,0.2l1.6,1L73.5,34.2z
		 M59.7,21.9l-0.2-0.3l0-0.3L59.4,21l-0.8,0.1l-0.1,0.3l-0.4,0.2l0,0.7l-0.3,0l0,0.3l0.2,0.4l0.2-0.2l0.1,0.2l0.3-0.2l0.6,0.1
		l-0.3-0.2l0.4-0.2l0.2-0.6L59.7,21.9z M58.5,5.4l0-0.4l-0.6,0.2l0.5,0.3L58.5,5.4z M58.7,6.3l-0.2-0.3l0,0.7l0.2,0.1L58.7,6.3z
		 M59.7,19.9l-0.1-0.2l-0.3,0.1l0.2,0.2L59.7,19.9z M65.2,10.2h-0.7l-0.2,0.3l0.8,0.1L65.2,10.2z M65.3,15.1h-0.9v0.3l0.1,0.1
		l0.3,0.1l0.1,0L65.3,15.1z M66.3,17.2l0-0.3l-0.2,0.3H66.3z M68.5,27.9l-0.6,0l0.3,0.4L68.5,27.9z M69.7,30.5l-0.3-0.1l0.2-0.8
		l-0.2,0l0.2-0.4l-0.4-0.2l-1-0.2l-0.1,0.3l0.8,0.3l0.3,0.2l-0.6-0.1l0.1,1l-0.2,0.2l0.4,0.7l-0.3,0.3l0.1,0.3h0.7l-0.1-0.6
		L69.7,30.5z M69.9,28.7v-0.5l-0.3-0.1l-0.1,0.2h-0.2v0.4l0.3,0.1L69.9,28.7z"/>
	<path class="st0" d="M102,25.5l-0.2,2.2l-0.1,0.4h-0.2l-0.2,0.4l-0.2-0.4l-0.2,0.1v0.2l0.3-0.1l-0.1,0.7l-0.6,0.4l0,0.2l0.2,0.1
		l0.2-0.4l0.4-0.1l-0.2,0.5l-0.7,1.3l-0.3,0.4l-0.2-0.5l0.2-0.1v-0.4l0.4,0l-0.1-0.6l-0.6,0.2l-0.1,0.1l-0.3,0v0.2l-0.1,0.1v0.3
		l-0.4-0.3h-0.3l-1,1l-0.6,0.2l0,0.3l0.4,0.4l-0.4,0l0,0.2h-0.1l0.3,1l-0.6-0.1v0.2l-0.3,0L95.8,34l-0.2-0.1L95.4,34v0.1l-1.1,0.2
		l0.1,0.6l1-0.2L94.8,35l-2.7,0.6l-0.5,0l0.2-0.4l-1.1,0l0,0.4l-0.5-0.1l0.2-0.1v-0.8l-0.9-0.2l0-0.5l0.1-0.9l0.1-0.2l0.1-0.1
		l2.1-1.2l0.2-0.2l0.7-1.1l0.2-1.2l-0.2-1.2l-0.9-1.2l-1.4-1l-2.4-1l0.1-0.1l-0.9-0.1L87,24.3V24h0.3l0.3-0.2l0.2,0.1l0.2-0.2
		l-0.1-0.2h0.3l0.1-0.4l0.1-0.1l-0.1-0.3h-0.2v0.6l-0.8,0.4v-0.4l-0.2-0.4l-0.5,0.1l-0.2-0.1l-0.4,0.1L84,22.7v-0.5l0.4,0V22
		l0.3-0.1v-0.4l-0.3-0.2l0.9-0.5L85,20.1l-0.4,0l-0.2,0.2l-0.9,0.3l0.1,0.5l-0.1,0.4l-0.1,0l0.1,0.8l-0.5,0l0-0.2l-0.8-0.2l0.2-0.1
		h0.2v-0.3l-1.3-0.1L81,21.8l-0.2-0.4L80,21l0-0.2l0.6,0l0-0.3h0.5v-0.7l0.5,0.5v0.4l1.1-0.3l0.3,0.3l0.1-0.1l-0.7-1.2l-1.6,0.4
		l-0.1,0L80,20l0,0.4l-0.8,0l-1-1l-0.5-0.8l-0.5-0.5l-0.7-1.8l-0.1-0.4l-0.3-1.8l0.2-2.3l0.4-0.1v-0.3l-0.2-0.1l0.1,0l0-0.2l0.3-0.2
		l0-0.2l-0.2-0.1l0.2-0.4l0.4-0.3l0.4-0.5l-0.2-0.1l0.7-1l0.2,0l1.1-1.1l0.2-0.5l0.2-0.3L79.8,6V5.8h0.7V5.4l0.6,0.3l-0.2,0
		l-0.1,0.6L81.1,6l0.2-0.6l0.6-0.2l0.3-0.3l0.4,0l0.1-0.2h-0.3V4.4h1L84,4.2L84,4l0.8,0V3.6h0.5V3.2L86.5,3l0.9,0.2l0.4,0.4L88,4.4
		l-0.1,0.9l-0.1,0.5l-2.5,1.5L84.8,8l-0.2,1.2l0.3,1.6l1,1.4l1.7,1.1l6.7,2.2l1.9,0.7l1.2,0.6l0.3,0.4H98v0.5l0.3,0.2l0.1,0.3
		l-0.2,0.1l0,0.6l0.7,0.2l0.2,0.2l0.1,0.3l0.1,0.5l-0.1,0.5l0.5,0.2l0.3,0.3l0.4,0.3l0-0.5l-0.7-0.1l-0.2-0.5l0.5,0.4l0.6-0.4h0.2
		l0.1,0.2l-0.1,0.2l0.4,0.4l-0.1,0.1l0.4,0.5l0.1,0.5L102,25.5z M88,34.2l0,0.1l-0.5,0.3l0,0.6l-0.2,0.1v0.3l-0.9,0l-0.5-0.1
		l-0.5-0.1l0.2-0.5l-0.3,0l-0.5,0.4l-0.1-0.5l-0.8-0.2h-0.4l0-0.1l-0.9,0L82.3,34l-1.8,0.8l-1.3,0.9l-0.9-0.1l-0.7-0.2L77.2,35
		l-0.3-0.5l0.2-0.1l0-0.8l0.1-0.1l-0.1-0.3l0.2-0.2l-0.1-0.3l0.2-0.4l-0.1-0.6l0.4-0.2l-0.2-0.4L77,30.9v-0.6l0-1.2l-0.3-2.5
		l-0.3-1.9l0.1-0.4l0.2-0.2l1-0.1l1,0.1l0.3,0.1l0.6,1.2l0.4,1.2l-0.1,0.5l-0.2,0.5h-0.3v0.5h0.4l0.1,0.5h0.5l0.2-0.9l0.4,0.4
		l1.2,1.6l1.3,1.2l1.2,0.7l2.8,1.2l0.6,1.1V34.2z M78.4,18.3h-0.2L78,18.5l0.3,0L78.4,18.3z M81,19.6l-0.3-0.7l-0.4-0.2l-0.2,0.2
		l-0.6,0l0,0.2l0.3,0l0.2,0.5l0.1-0.1l0.5,0.2L81,19.6z M79.8,20l-0.2-0.1l-0.1,0.4L79.8,20z M81.9,4.5l-0.1,0.3h-0.4L81.9,4.5z
		 M83.3,19.6L83,19.2l-0.4,0.1l0,0.2l0.1,0.2L83.3,19.6z M83.2,21.6l-0.3,0l-0.1,0.2l0.4,0.1L83.2,21.6z M83.4,4.6l-0.3,0L83,4.8
		l0.3,0.1L83.4,4.6z M84,19.6v-0.3l-0.6,0.2l0.2,0.1L84,19.6z M84.5,6.3l0-0.6l-0.5,0.6L84.5,6.3z M84.7,4.4l-0.4-0.2v0.3L84.7,4.4z
		 M87,34.9l-0.4-0.1l-0.6,0.1l-0.1,0.1l0,0.2l0.3,0.1l0.2-0.3l0.3,0.1L87,34.9z M89,23.4l-0.3,0l-0.4,0.3l0.5,0L89,23.4z M100,12.9
		l0,0.3l-0.2,0.2l-0.6,0.2l-0.7,0.1h-0.1l-0.8-0.5l0.2-0.2H98l-0.1-0.1v-0.2l-0.4-0.2l-0.2,0.3l0,0.2l-1.5-2.7l-1.2-1.4l-0.7-0.7
		l-1.1-0.8l-3.1-1.3L89.6,6l-0.2-1.4l0.2-1l0.3-0.3l0.6-0.2L93,3.6l0.8,0.3l0.4,0.3l0-0.1l0.6,0.2l0.2,0.3l0.5,1.1l0.5,0.2L96,4.6
		l0.2,0L96,4.3l1.1-0.9l0.3-0.2l0.4,0l0.4,0.1l0.2,0.2L98.7,4l0.1,0.1l0,0.3l0.3,0.3h0.3l0.2,0.4l0.1,0.5l-0.2,1.6L99,7.9l0.3,0.2v1
		L99,9.6h0.3l0.1,0.4h0.2L100,12.9z M93.1,4.9l0-0.3l-0.4,0l-0.1,0.2L93.1,4.9z M97.3,21.7l-0.3-0.4l-0.2,0.3l0.3,0.4L97.3,21.7z
		 M99.1,21l-0.3-0.3L98.2,21l-0.3-0.5l-0.2,0l0,0.3l-0.2,0.1l-0.1,0.3l0.3,0.3l0.1,0.3l0.3-0.3l0-0.2l0.1,0.2h0.2l0.2-0.4l0.3,0.1
		L99.1,21z M97.7,31.8L97.6,32l-0.3-0.1l0-0.2L97.7,31.8z M97.9,32.5l-0.2,0l0,0.2l-0.1-0.5L97.9,32.5z M97.9,22.6l-0.2-0.2l0.1,0.5
		L97.9,22.6z M99.7,24l-0.7-0.6l-0.3,0.3l-0.6,0l0,0.2l0.7,0.5l-0.1,0.8l0,0.7l-0.1,0.1l-0.1-0.2l-0.1,0.6l0.2,0.3l0.2-0.6l0.6-0.4
		l0-0.2l-0.1-0.3l-0.3-0.6l0.5,0L99.7,24z M99.1,22.4v-0.3l-0.3,0.1v0.4L99.1,22.4z M99.6,31.1L99.2,31v0.3l-0.1,0L99,31.1l0.1-0.3
		h0.3L99.6,31.1z M99.5,4.2l-0.1,0.2L99,3.9l0.3-0.1L99.5,4.2z M99.4,21.9l-0.2-0.5V22L99.4,21.9z"/>
	<path class="st0" d="M112,6l-0.1,0.3l-0.5,0.6l-0.1-0.2l-0.4,0.2l-0.6,0.4l-0.1,0.2L109.4,9l-0.3,0.3l0,0.5l-0.6,1.1l0.3,0.3
		l-1,3.2l-0.2,0.2l-0.6,0.2l0.1-0.2h-0.3l0.1-0.3l-0.5-0.1l-0.3,0.5l-0.2,0.1l-0.1,0.2l-0.9-0.3l-0.2-0.2l-0.1-0.8l0.5-4.9l-0.2-2.1
		l0.1-0.4l-0.1-0.3l0.2-0.2l-0.2,0.1V5.2l0.3,0.2l0.3-0.2L105.4,5l0.1-0.1l0.2,0.1l0.2-0.6l-0.3-0.1L105.5,4l-0.2-0.1l3.9,0.2
		l0.5-0.2l0.4,0.6l0.2-0.4l0.3-0.1l0-0.2l0.4,0.5l-0.4,0l-0.4,0.3l0.4,0.4l0-0.2l0.2-0.2l0.2,0.5l-0.5,0.3l0.1,0.3l0.2,0.1l0.1,0
		l0.9-0.4V6z M128.3,34.1l-0.1,0.4l-0.5,0.5l-2.3,0.6l-4.9-0.3H118l-0.3,0v-0.3l-1.1-0.1l-1,0.1l-2.4,0.4l-1.9-0.4l-0.3-0.1
		l-0.2-0.3l0-0.3l0.1-1l2.7-1.2l0.1-0.1l0.2-1.8l0.1-1.7l0.2,0.1l0.1-0.9l0.2-0.7l-0.2-0.4l-0.2,0l0-0.4l0.3,0v-0.4l-0.5,0.1
		l0.1-2.4l0.2,0.2l-0.1-0.4h0.3l0.1,0.2h0.2l0.1-0.4l-0.3-1.9l-0.1-0.4l0.1-0.2l-0.1-1.1l0.2,0l-0.2-0.7l0.1-0.1l0.1-0.6l-0.5-0.2
		l0.3-0.9l-0.2-0.4l-0.3-0.5l0.2-0.2l-0.1-0.1l0.2-0.2v-0.2l-0.3,0l0-10.3l1.4-0.7l-0.1-0.4l3,0.3l5.4-0.3l1.2,0.2l0.2,0.2l0.2,1
		L125,5.6L124.6,6l0,0.5l0,0.4l0.3,0.7l-0.1,0.1l0.3,0.3v0.2h-0.4l-0.1,0.3l0.2,0l0,0.2l-0.2,0.3l0.5,0.7v0.7l-0.3,0.2l0.2,0.5
		l0,0.4l0.2,0.3l0,2.3l-0.6-0.2l-0.1,0.2l0.4,0.3l-0.1,0.1l0.1,0.6l0,0.6l0.1,0.5l-0.3,0.7l0.2,0.4v0.5l0.1,0.5h-0.1l-0.2,0.4
		l0.2,0.1l-0.1,0.4l0.6,0.2V20h-0.3l0,0.3l0.1,0.1l-0.2,0.1l0,0.2h0.3l0,0.2l0.1-0.1V21l-0.5,0.1l0.4,0.3v0.3l-0.3-0.3l0,0.4l0.3,0
		l0,0.1l-0.4,0.1l0.1,0.4l0-0.2l0.3,0.5V23l-0.1,2.3l0,1.2l-0.2,0.1l-0.1,0l-0.1,1l0,0.3l0.1,0.5h0.2l0,0.6l0.1,0.3h-0.2l0,0.2
		l-0.3,0.2l0.4,0.2v0.1l-0.2,0.1l0.2,0.7l-0.8,0l0.1,0.3l-0.1,0.2l-0.4-0.1l-0.2,0.1l0.5,0.7l0.6,0.2l0.3,0.3h-0.7l0.2,0.3l0.3,0
		l0.3-0.1l-0.1-0.4h0.3l0.1-0.6l0.6,0.4l2.1,0.7l0.1,0.4L128.3,34.1z M114.1,30.2v-0.5h-0.2l-0.1,0.3L114.1,30.2z M114.1,29.4
		l-0.1-0.5l-0.1,0.5H114.1z M114.3,24.9l-0.3,0.3l0.2,0L114.3,24.9z M114.7,12.2l-0.6,0.1v0.1l0,0.4l0.3-0.5L114.7,12.2z
		 M115.7,12.2l-0.9,0.2v0.3l0.6-0.1L115.7,12.2z M116,27.7l-1,1.2l0.2,0.2l0.2-0.2v-0.4l0.5-0.2L116,27.7z M115.9,27.3l0-0.4
		l-0.2,0.3l0,0.3L115.9,27.3z M124.2,9.3L124,8.7h-0.2l0-0.3h0.2l0-0.2l-0.3,0l-0.1-0.8l-0.2,0.2l-0.2-0.2l-0.5,0.6v0.7l0.5,0.3
		l-0.1,0.4l0.7,0.1L124.2,9.3z M123.7,6.5l-0.4-0.3l-0.1,0.7l0.3,0.1L123.7,6.5z M123.6,11v-0.3l-0.2,0.4L123.6,11z M134.1,13.9
		l0,0.5l-0.1,0.2l-0.5,0.2l-1.1,0.2l-0.7-0.1l-0.2-0.2l-0.1-0.2l-1.1-2.8L129,9.4V9.1l-0.1-0.7h0.1l0.2-0.3l-0.6-0.3l-1.2-0.5
		l-0.7-1.7l0-0.6l0.1-0.7l0.5-0.5l0.2,0l2.6,0.2l2.8-0.2l0.6,0.3l0.1,0.1l0.1,2.5v3.8l-0.1,0.3l-0.1,0.2l-0.6,0.7l-0.3,0.5l0.3,0.1
		v0.1l0.6,0l-0.2,0.5l0.3-0.1l0.1,0.1l-0.3,1l0.3,0v-0.2L134.1,13.9z M132.7,13.5l-0.4,0.1l0.2,0.1L132.7,13.5z M133.1,13.2
		l-0.1-0.5h-0.5l0,0.4L133.1,13.2z"/>
	<path class="st0" d="M150.3,5.9l-0.2,6.1l-0.7-0.1l0,0.4l-0.7-0.4V12h-0.1l0.5,0.6l1.2,0.1l0,0.3l-0.2-0.1l0.2,0.6l-0.4-0.1l0,0.5
		l0.4,0.8l0,0.2l-0.1,1.9l-0.4-0.2l-0.1,0.4h0.4l0.2,0.4l0,0.2l-0.3-0.2l-0.3,0.1l0,0.6l-0.2,0.2l0,0.4l-0.1,0.2l0.2,0.2l-0.4,0.4
		l-0.3,0l-0.4,1.2l0.5,0.1l0.9-0.6l-0.1-0.1l0.2-0.7l0.3-0.3l0.1,3.8l-0.1,8.6h-0.4l-0.1,0l0,0.2l-0.2,0.5l0.2,0.2h0.6l0,1.8L150,35
		l-0.3,0.2l-1.1,0.2l-1.2,0l-0.1-0.5l-0.2-0.3l0.3-0.7l0-0.6l-0.3,0l0.1,0.1l-0.2,0l-0.2,0.4l0.1,0.5l-0.2,0.9l-5.2,0l-0.1-0.3
		l0-0.4l-0.2-0.1l-0.5,0.3l-0.7,0.3l-0.2,0.2l-1.8-0.1l-1.2-0.4l-0.4-0.4l-0.1-0.6l0.1-0.5l0.1-0.1l1.9-0.9l0.5,0.4l0.1-0.1v-0.2
		l0.3-0.1l0.2-0.2h0.2l0.4-0.3l0-0.7h0.2l-0.1-0.4l-0.3-0.3v-0.3l-0.5-0.4l0-1.5l-0.5-0.5l0.3,0l-0.1-0.7l0-1.2l0.6,0l0.1-0.2l0.2,0
		l0.2-0.3l-0.2-0.7h-0.4l0.2-0.2l-1-0.2v-1.8l0.1-1.1l-0.1-3.8l0-0.3L139,16l0-0.6l0.1-0.2h0.1l0-0.8l0.1-0.7l-0.6-0.4l0.1-1.1v0.4
		l0.5-0.6l-0.6-0.1v-1.2l-0.2-3.5l-0.1-0.2l-1.4-0.7L136.4,6l-0.2-0.5l-0.1-0.4l0.1-0.5l0.5-0.5l0.9-0.3l1-0.2l4.8,0.1l0.2,0.6
		l0.2-0.1l0-0.3l0.1-0.1l1,0l0.2,0.4l0.4,0.1l0.7,0l0.1-0.1l0.3-0.5l0.7,0l0.3,0.6l0.4-0.3h0.3V3.7l0.6,0l0.5,0.1l0.2,0.3L150.3,5.9
		z M139,12.8h-0.2v0.3h0.2L139,12.8z M139.5,21.7l-0.2,0l-0.1,0.4l0.1,0.1L139.5,21.7z M139.8,30.3l-0.2,0.2l-0.1,0l0-0.4l-0.1-0.3
		v-0.2l0.2,0l0,0.3L139.8,30.3z M146.4,34.7v-0.2l-0.8-0.2L146.4,34.7z M146.4,34.1v-0.4l-0.5-0.2l-0.1,0.2l0,0.2l0.2,0.2H146.4z
		 M149.1,8.5V8.3L148.5,8l-0.3,0.3l-0.2-0.1l-0.2,0.5l0.3,0.4l0.3,0.3l0.6-0.2V9.1L148.8,9l0-0.2L149.1,8.5L149.1,8.5z M148.6,17.6
		l-0.3-0.4l0.2,0.6L148.6,17.6z M157.7,24.2l-0.1,0.9l-0.4,0.4l-0.9,0.2l-0.6-0.1l-0.2-0.2l-1.6-2.8l-1.8-1.7l-0.3-0.6l-0.1-0.8
		l0.3-1.3l0.3-0.4l1.2-0.9v0.2l0.4,0.1v-0.5l0.8-0.2l0-0.9l-0.1-0.3l0.9-1.8l0.1-0.1l0.7-0.1l1,0.2l0.3,0.3l0.2,1.3l-0.1,2.6
		l-0.1,1.8l0,0.8l-0.1,0.2l-0.1,0.7h0.3l0.1,0.5L157.7,24.2z M162.1,12.3l-0.2,0.6l-0.3,0.3l-0.8,0.1l-1.1-0.2l-0.2-0.1l-1.4-2.1
		l-2-2.2l0.3-0.2l-0.3-0.2l-0.1,0.1l-0.3,0L155.2,8l0.6,0l-0.5-0.1l-0.4,0l-2.7-1.2L152,6.6l-0.2-0.5l-0.2-0.8l0-0.7l0.1-0.7
		l0.1-0.2l0.3-0.1l0.6,0v0.1l0.5,0.1l0.1-0.2l0.2,0.2l0.5-0.2l0.5,0.3l0-0.2l0.3,0l0.2,0.4l0.2,0l0.1,0.1l0.5-0.4l2.3,0l2.5-0.1
		l0.2,0l0.3,0.3l0.2,0.7v0.9l-0.3,0.1l-0.1,0.3l0.2-0.1l-0.3,0.4L161,7.1l0.1,0.6l0.1,0.1l0.4,0.1l0,0.8l-0.2-0.4l-0.4,0.3L161,8.1
		l-0.1,0.6l0.3,0.1l0,0.4l0.5-0.1L162.1,12.3z M163.1,25.7l-0.4,5.7l0,3.4l-0.1,0.4l-0.3,0.2v-0.3l0.1-0.1l-0.1-0.2l-0.4,0.1
		l-0.2-0.3h-0.4l-0.2,0.5l-0.6-0.5l-0.7,0.3l-1.6,0.2l-0.6-0.5l-0.2,0l-1.2,0.2l0,0.2l-0.4,0l0,0.1l-1,0l-1.4,0.3l-0.6,0l-0.6-0.4
		l-0.2-0.3l-0.2-1.2l0.2-1.2l0.2-0.2l2.4-1L155,31l0.1,0.3l0.4,0l0.3,0.1l0.3-0.5l0.6-0.1l0-0.3l0.4-0.1l0.8,0l0.1-0.1l0.1-0.1v-0.5
		h-0.4v-0.2l0.2-0.2h0.3v-0.4l0.4,0l-0.1-0.2l-0.2,0.1l0.2-0.5l0.3,0.6l0.1-0.4l-0.3-0.2l0.8-1.2l1.1-1.4l0.4-0.2l0.6-0.1l1,0.2
		l0.5,0.3L163.1,25.7z M162,35.2l-0.1,0.2h-0.5L162,35.2z"/>
	<path class="st0" d="M182.8,34l-0.1,0.6l-0.4,0.4l-0.8,0.3l-1.2,0.2l-5.9-0.3l-2,0l0.2-0.2l0-0.6l0.2,0l-1.1,0.1l-0.4-0.4l-1.2,0.4
		l-0.9,0.5l-0.1-0.2l-0.4,0.6l-0.5,0l-1.4-0.3l-0.3-0.3l-0.2-0.8l0-0.5l0.2-0.1l1.5-0.7l0.4-0.3l0.7-2.5v-0.2l0.2-0.6l-0.2-0.3
		l0.2-0.2l0.7,0.1l0.3-0.7l-0.3-0.1l0.3-0.3l0.1-0.5l-0.2-0.2v-0.2l-0.5-0.1l-0.1,0.6h-0.4l0.3-0.1l-0.7-0.3v-3.7l0.2-0.1h-0.1v-0.3
		l0.5-0.1l-0.1-0.8l-0.1-0.1l0.1-0.3l-0.1-0.2l0.7,0.2l-0.4-0.4l0.2-0.4l-0.3,0l0.3-0.5l-0.2-0.2v-0.6l0.2-0.2l-0.2-0.6v-0.5l-0.2,0
		l0.1-0.1v-0.4l0.2,0l-0.1-0.5l-0.1-0.4l-0.4-0.3v-2.7l0.2,0l0-0.6h0.1l0-0.4l-0.3,0.1l0-1.2l0.2-0.2l0.1,0l0.3,0.1l0.2-0.5l0-0.2
		l0-0.3l-0.1-0.2l-0.3-0.4l0.4-0.1l-0.3-0.1l0-0.3l0.2,0l-0.1-0.3l0.4-0.4h0.2l-1-0.9l-0.1,0l-0.7,0.1l-0.5-0.3l-1.2-0.4l-0.3-0.9
		l0.1-0.7l0.4-0.4l1-0.3l0.6,0l0.2,0.7l0.3-0.2l-0.1-0.5l0.5-0.1l2.2,0.1l0.1,0.2l0.1-0.1h0.3l0.3,0.3l0-0.2h0.4l0.3,0.3l-0.4,0.3
		l0.2,0.3l0.1-0.2h0.2l0.1-0.2l0.3,0.1l0.3-0.3l0.5-0.2V4l0.9,0.2l0.1-0.2l0.5,0l0.3-0.1l0.4,0.4l0.3,0V4.1l0.5,0.1l0.3,0.2l0.1-0.2
		l0-0.6l0.5,0l1.2,0.1l0.4,0.5l0,0.2l0.1,9.4l-0.3,0.3h0.3v0.5l-0.2,0.3v0.5l-0.7,0.2l0.1,0.5l0.3,0l0.3-0.5l0.1,11.5H180l0.2,0.3
		l-0.1,2.8l-0.1,0.1l-0.3,0.8l-0.5-0.2l-0.1,0.4l0.4,0.1l-0.1,0.9l-0.4-0.1l0.4-0.4l-0.2-0.3l-0.3,0.6l-0.6,0.1l0.3,0.1l0,0.3
		l0.3,0.3h0.2l0-0.3h0.2l0.5,0.3l0-0.6l0.7,0.1l0,0.3l0.6,0.1l0.2-0.2l0.5,0.3l0.6,0.3L182.8,34z M170.3,6.3l-0.4-0.2l0.1-0.2h0.1
		l-0.1-0.3l-0.3-0.2l-0.3,0.9L169.3,6l-0.4,0l-0.2-0.5l-0.3,0.1l0,0.1l0.6,0.6l0.7,0.1v0.4L170,7l0.1-0.6L170.3,6.3z M169.5,4.1
		l-0.2-0.2L168.9,4l0.4,0.1L169.5,4.1z M169.9,3.8h-0.3v0.4l0.3-0.1L169.9,3.8z M173.7,34.3l-0.2-0.2l-0.5,0.4h0.5L173.7,34.3z
		 M175.8,34.2l-0.4-0.2l-0.5,0.4h0.2l0.3,0.2l0.3-0.2L175.8,34.2z M176.2,6.6L176,6.3l-0.7,0.5v0.2l0.1,0.1l0.1,0.1l0.1,0l0.4-0.2
		L176,6.7L176.2,6.6z M176.7,8.7l-0.4-0.2l0.1,0.3l-0.5-0.1l-0.1,0.5l0.4,0.4l-0.4,0.1l-0.2,0.3l0.4,0.2l0.4-0.5l0-0.4h-0.1L176.1,9
		l0.2,0.2h0.3L176.7,8.7z M177,7.7l-0.1-0.2l-0.2,0.1l-0.2,0.7l0.3,0.1h0.3V8.2l-0.2-0.1L177,7.7z M177.3,7L177,7l-0.1,0.3h0.3
		L177.3,7z M177.9,34.4l-0.3-0.4h-0.2l-0.1,0.1l0.1,0.2H177.9z M177.5,6.9V6.7h-0.2v0.2H177.5z M179.3,16.3v-0.2l-0.2-0.2l-0.9,0.7
		l-0.1,0.5l0.3,0l0.1,0l0.1-0.2l-0.2-0.4l0.5,0.1L179.3,16.3z M200.1,33.9l-0.2,0.8l-0.5,0.5l-1.7,0.4h-0.6v-0.3l-0.2-0.3l-0.4,0.1
		h-0.5l-0.5,0l-0.1-0.7l-0.8,0.1l-0.5-0.1l-0.1,0.1l-0.1-0.3l-0.5-0.2v0.5H193l0.1,0.8l-2.4-0.1l0.1-0.1l-0.2-0.1l-0.1,0.1l-0.6,0
		l-0.7,0.1l0,0.3l-1.9,0.1l-1-0.1l-1.4-0.4l-0.5-0.4l-0.1-0.9l0-0.4L186,32l0.1-0.2l0.2-0.6v-1.2l0.5,0l0.1-0.7l-0.3-0.4l-0.5-1.1
		v-0.3l-0.3-0.4l-0.4-1.3l-0.3-0.3h0.1V25l-0.5,0l0.1-0.2l0.1-0.1l-0.1-0.8l0.2,0l0-0.1l-0.2-0.2l-0.4-1.5l-0.5-0.1l-0.1,0.3
		l0.2,0.2l0.2,0l-0.1,0.7l0.2-0.1l0.3,0.2l-0.3,0.1l-0.4-0.4l0.1-0.4h-0.2l-0.3-0.5l-1.7-1.6l0-0.5l0-0.7l0.2-0.8l0.2-0.2l1.5-1
		l0.9-1.9l0.1,0.1l0.2-0.2l0-0.6l-0.3,0l-0.1-0.5l0-0.3l0.5-1.2l-0.1-0.1v-0.1l0.2-0.1l0.1-0.5h0.1l0,0.5l-0.1,0.6l-0.1,0.1l0,0.2
		l-0.1,0.2l0,0.2l-0.2,0.2l0,0.2l-0.1,0.4h0.2l0.1-0.2l0.1-0.6l0.5-0.4l0.1-0.7l-0.1-1.9l0.3-0.1l0.1-0.3l0.4-0.1l0.3-0.2l0.3,0.1
		L187,9.1l-0.9,0.3l-0.7-0.2l-0.2,0.1l-0.1,0.1l-0.1,0.7l-0.4,0l0.1-0.4l-0.2-0.4l-0.2-1.1l-0.3-0.6l-0.7-0.7L182,6.3l-0.2-0.5
		l-0.1-0.9l0.2-0.8l0.3-0.3l2.3-0.4l2.9,0.2l0.1,0.4l0.6,0.1l0.1,0.2l1-0.1l0,0.1l0.9-0.1l0.5,0.2l0.5,0.1V4.3l0.2,0.4l0.7,0.1
		l0.2,0.6l0.1-0.1l-0.2-0.2h0.4l0.1,0.9l1,0.6l-0.1,0.1l0.4,0.2l0.1,0.6l0.2,0.2l0,0.4l0.3,0.1l0,0.4l0.2,0l0.1,0.2L195,9.3h0.2
		L195,9.7h0.4l0.1,0.2l0.3,0.1v0.1h-0.3V10L194,9.8l-0.1,0.3l0.1,0.4l-0.2,0.3l0.1,0.6h-0.3l0.1,0.6l0.1,0.1v0.2l0.6,0.1v-0.2h-0.2
		V12h0.2v0.2l0.7,0v-0.6l-0.1,0v-0.2l-0.3-0.1l0-0.2l0.7,0l-0.1-0.3l-0.4-0.2h0.6l0,0.6l-0.1,0.7l0.1,0.1l0.4-0.1v1l-0.4,1.9
		l-0.5,1.1l-0.4,0.4l-0.1-0.2l-0.2,0l-0.1,0.4l-0.1-0.3l-0.5,0.3v-0.1l0.2-0.2l-0.2-0.1l-0.9,0.6l-0.2,0.2l0,0.2l0,0.3l-0.4-0.4
		l-0.5,0.4l0.2,0.2l-0.2,0.2l0.3,0.8l-0.6,0.2l-0.2,0.4l0.5,0.3l1.3,1l0.9,1.2l0.6,1.2l-0.3,0l0.2,0.5l0.4,0.5l-0.1,0.7l0.3,0.1
		l-0.2,0.1l0.3,0.6l0,0.2l0.3,0.3l-0.1,0.5l0.2,0.2l-0.1,0.2l0.1,0l0,0.4h0.2l0.1,0.4l-0.2,0.3l0,0.2l-0.4,0.2l0.3,0.1v0.1h0.2
		l0.2,0.4l-0.1,0.1l0,0.2l0.7-0.1l0.2-0.7l0,0.6l0.5,0.7l0.9,1.8L198,32l0.4,0.3l1.6,0.9l0,0.1L200.1,33.9z M184.5,21.2l-0.3-0.4
		l0-0.5l-0.4-0.1l-0.2,0.1l0,0.5l-0.2,0.1v0.3L184.5,21.2z M185.3,10.5h-0.4l0.2-0.2h0.2V10.5z M191.3,18.5l-0.1-0.4l-0.5-0.3l0,0.4
		l0.2,0.5L191.3,18.5z M191.8,34.6l0-0.1l-0.1-0.1l-0.3,0v0.2l-0.3,0l-0.1,0.2l0.5,0.1l0.3-0.1L191.8,34.6L191.8,34.6z M192.7,34.2
		l-0.7,0l0,0.3L192.7,34.2z M195.2,29.4H195l0-0.3l-0.3-0.1l0.1-0.4l-0.3,0.2l-0.2,0.7l0.4-0.1l-0.2,0.4l0.7,0L195.2,29.4z
		 M194.9,12.8l0-0.2l-0.2-0.1l0,0.1L194.9,12.8z M195.2,34l0-0.4h-0.4l-0.1,0.4L195.2,34z M196.2,30l-0.2,0l0.1,0.5L196.2,30z"/>
	<path class="st0" d="M228.3,25.5l-0.2,2.2l-0.1,0.4h-0.2l-0.2,0.4l-0.2-0.4l-0.2,0.1v0.2l0.3-0.1l-0.1,0.7l-0.6,0.4l0,0.2l0.2,0.1
		l0.2-0.4l0.4-0.1l-0.2,0.5l-0.7,1.3l-0.3,0.4l-0.2-0.5l0.2-0.1v-0.4l0.4,0l-0.1-0.6l-0.6,0.2l-0.1,0.1l-0.3,0v0.2l-0.1,0.1v0.3
		l-0.4-0.3h-0.3l-1,1l-0.6,0.2l0,0.3l0.4,0.4l-0.4,0l0,0.2h-0.1l0.3,1l-0.6-0.1v0.2l-0.3,0l-0.3,0.3l-0.2-0.1l-0.2,0.1v0.1l-1.1,0.2
		l0.1,0.6l1-0.2L221,35l-2.7,0.6l-0.5,0l0.2-0.4l-1.1,0l0,0.4l-0.5-0.1l0.2-0.1v-0.8l-0.9-0.2l0-0.5l0.1-0.9l0.1-0.2l0.1-0.1
		l2.1-1.2l0.2-0.2l0.7-1.1l0.2-1.2l-0.2-1.2l-0.9-1.2l-1.4-1l-2.4-1l0.1-0.1l-0.9-0.1l-0.4-0.2V24h0.3l0.3-0.2l0.2,0.1l0.2-0.2
		l-0.1-0.2h0.3l0.1-0.4l0.1-0.1l-0.1-0.3h-0.2v0.6l-0.8,0.4v-0.4l-0.2-0.4l-0.5,0.1l-0.2-0.1l-0.4,0.1l-1.9-0.1v-0.5l0.4,0V22
		l0.3-0.1v-0.4l-0.3-0.2l0.9-0.5l-0.4-0.6l-0.4,0l-0.2,0.2l-0.9,0.3l0.1,0.5l-0.1,0.4l-0.1,0l0.1,0.8l-0.5,0l0-0.2l-0.8-0.2l0.2-0.1
		h0.2v-0.3l-1.3-0.1l-0.3,0.3l-0.2-0.4l-0.7-0.3l0-0.2l0.6,0l0-0.3h0.5v-0.7l0.5,0.5v0.4l1.1-0.3l0.3,0.3l0.1-0.1l-0.7-1.2l-1.6,0.4
		l-0.1,0l-0.8,0.3l0,0.4l-0.8,0l-1-1l-0.5-0.8l-0.5-0.5l-0.7-1.8l-0.1-0.4l-0.3-1.8l0.2-2.3l0.4-0.1v-0.3l-0.2-0.1l0.1,0l0-0.2
		l0.3-0.2l0-0.2l-0.2-0.1l0.2-0.4l0.4-0.3l0.4-0.5l-0.2-0.1l0.7-1l0.2,0l1.1-1.1l0.2-0.5l0.2-0.3L206,6V5.8h0.7V5.4l0.6,0.3l-0.2,0
		L207,6.3l0.3-0.2l0.2-0.6l0.6-0.2l0.3-0.3l0.4,0l0.1-0.2h-0.3V4.4h1l0.6-0.2l0-0.2l0.8,0V3.6h0.5V3.2l1.2-0.1l0.9,0.2l0.4,0.4
		l0.2,0.8l-0.1,0.9l-0.1,0.5l-2.5,1.5L211,8l-0.2,1.2l0.3,1.6l1,1.4l1.7,1.1l6.7,2.2l1.9,0.7l1.2,0.6l0.3,0.4h0.4v0.5l0.3,0.2
		l0.1,0.3l-0.2,0.1l0,0.6l0.7,0.2l0.2,0.2l0.1,0.3l0.1,0.5l-0.1,0.5l0.5,0.2l0.3,0.3l0.4,0.3l0-0.5l-0.7-0.1l-0.2-0.5l0.5,0.4
		l0.6-0.4h0.2l0.1,0.2l-0.1,0.2l0.4,0.4l-0.1,0.1l0.4,0.5l0.1,0.5L228.3,25.5z M214.2,34.2l0,0.1l-0.5,0.3l0,0.6l-0.2,0.1v0.3
		l-0.9,0l-0.5-0.1l-0.5-0.1l0.2-0.5l-0.3,0l-0.5,0.4l-0.1-0.5l-0.8-0.2h-0.4l0-0.1l-0.9,0l-0.2-0.5l-1.8,0.8l-1.3,0.9l-0.9-0.1
		l-0.7-0.2l-0.4-0.3l-0.3-0.5l0.2-0.1l0-0.8l0.1-0.1l-0.1-0.3l0.2-0.2l-0.1-0.3l0.2-0.4l-0.1-0.6l0.4-0.2l-0.2-0.4l-0.5-0.1v-0.6
		l0-1.2l-0.3-2.5l-0.3-1.9l0.1-0.4l0.2-0.2l1-0.1l1,0.1l0.3,0.1l0.6,1.2l0.4,1.2l-0.1,0.5l-0.2,0.5h-0.3v0.5h0.4l0.1,0.5h0.5
		l0.2-0.9l0.4,0.4l1.2,1.6l1.3,1.2l1.2,0.7l2.8,1.2l0.6,1.1V34.2z M204.7,18.3h-0.2l-0.2,0.2l0.3,0L204.7,18.3z M207.2,19.6
		l-0.3-0.7l-0.4-0.2l-0.2,0.2l-0.6,0l0,0.2l0.3,0l0.2,0.5l0.1-0.1l0.5,0.2L207.2,19.6z M206,20l-0.2-0.1l-0.1,0.4L206,20z
		 M208.1,4.5L208,4.8h-0.4L208.1,4.5z M209.5,19.6l-0.3-0.4l-0.4,0.1l0,0.2l0.1,0.2L209.5,19.6z M209.4,21.6l-0.3,0l-0.1,0.2
		l0.4,0.1L209.4,21.6z M209.6,4.6l-0.3,0l-0.1,0.2l0.3,0.1L209.6,4.6z M210.3,19.6v-0.3l-0.6,0.2l0.2,0.1L210.3,19.6z M210.7,6.3
		l0-0.6l-0.5,0.6L210.7,6.3z M211,4.4l-0.4-0.2v0.3L211,4.4z M213.2,34.9l-0.4-0.1l-0.6,0.1l-0.1,0.1l0,0.2l0.3,0.1l0.2-0.3l0.3,0.1
		L213.2,34.9z M215.2,23.4l-0.3,0l-0.4,0.3l0.5,0L215.2,23.4z M226.2,12.9l0,0.3l-0.2,0.2l-0.6,0.2l-0.7,0.1h-0.1l-0.8-0.5l0.2-0.2
		h0.4l-0.1-0.1v-0.2l-0.4-0.2l-0.2,0.3l0,0.2l-1.5-2.7l-1.2-1.4l-0.7-0.7L219,7.5L216,6.1L215.9,6l-0.2-1.4l0.2-1l0.3-0.3l0.6-0.2
		l2.5,0.5l0.8,0.3l0.4,0.3l0-0.1l0.6,0.2l0.2,0.3l0.5,1.1l0.5,0.2l-0.1-1.2l0.2,0l-0.1-0.2l1.1-0.9l0.3-0.2l0.4,0l0.4,0.1l0.2,0.2
		L225,4l0.1,0.1l0,0.3l0.3,0.3h0.3l0.2,0.4l0.1,0.5l-0.2,1.6l-0.6,0.6l0.3,0.2v1l-0.3,0.5h0.3l0.1,0.4h0.2L226.2,12.9z M219.3,4.9
		l0-0.3l-0.4,0l-0.1,0.2L219.3,4.9z M223.5,21.7l-0.3-0.4l-0.2,0.3l0.3,0.4L223.5,21.7z M225.3,21l-0.3-0.3l-0.5,0.2l-0.3-0.5
		l-0.2,0l0,0.3l-0.2,0.1l-0.1,0.3l0.3,0.3l0.1,0.3l0.3-0.3l0-0.2l0.1,0.2h0.2l0.2-0.4l0.3,0.1L225.3,21z M223.9,31.8l-0.1,0.2
		l-0.3-0.1l0-0.2L223.9,31.8z M224.1,32.5l-0.2,0l0,0.2l-0.1-0.5L224.1,32.5z M224.2,22.6l-0.2-0.2l0.1,0.5L224.2,22.6z M226,24
		l-0.7-0.6l-0.3,0.3l-0.6,0l0,0.2l0.7,0.5l-0.1,0.8l0,0.7l-0.1,0.1l-0.1-0.2l-0.1,0.6l0.2,0.3l0.2-0.6l0.6-0.4l0-0.2l-0.1-0.3
		l-0.3-0.6l0.5,0L226,24z M225.3,22.4v-0.3l-0.3,0.1v0.4L225.3,22.4z M225.8,31.1l-0.3-0.1v0.3l-0.1,0l-0.1-0.2l0.1-0.3h0.3
		L225.8,31.1z M225.7,4.2l-0.1,0.2l-0.3-0.5l0.3-0.1L225.7,4.2z M225.7,21.9l-0.2-0.5V22L225.7,21.9z"/>
	<path class="st0" d="M257.9,34.5l-0.2,0.7l-0.4,0.4l-0.6,0.1l-0.7-0.2v0.1l-0.8-0.1l-0.3-0.2l-0.3,0.1l-0.4-0.4l-0.4,0.2l-0.3,0
		l-0.1-0.4l0.3,0l0.3-0.5l0.6,0.7l0-0.3l-0.5-0.3l0-0.2l0.1-0.2l0,0l0.2,0l0-0.7l-0.5,0l-0.2,0.2l0.1,0.5h-0.3l-0.2,0.2l0.2,0.1
		l-0.1,0.4l-0.4-0.1v0.3l-0.7-0.2l-1.8-0.8l-1.8-1.2l-0.6-0.5h0.4l-0.1-0.3l-0.3,0.1l0-0.2l0.1-0.4l-0.9-0.3l0.2-0.8l-0.7-0.3v-0.4
		l0.1,0l-0.3-0.3l-0.2,0l-0.1,0.3l-0.2,0l0-0.4l-0.1-0.2l0.2,0l0.3-0.2h-0.3l0.2-0.3l0-0.8l0.2,0l0-0.3l-0.2-0.2l0.1-0.1l-0.5-0.6
		l-0.7-0.1l0-0.2l-0.3-0.5h0.1l0-0.3l-0.2-0.1l-0.6,0.1l-0.6,0l-0.1-0.6L243,21v-1.3l0.2-3.7l0.5-1.8l0.5-0.6l0.1,0.2l0.4,0.2l0-0.6
		l-0.1-0.5l0.2-0.1l-0.2,0l-0.1-0.2h0.3l0.1-0.3l0.4-0.2l0.2,0.2l0,0.2l0.7,0.2v-0.3l0.1-0.1h0.2l0.1-0.4l-0.2-0.1l0-0.5l-0.4,0.1
		l-0.3,0.4h-0.4l0.1-0.5l0-0.4h0.3l0-0.9l0.3,0l0.3-0.4l0.3-0.1l0.8,0L247.2,9l-0.1-0.3l0.1-0.6l0.5,0l0-0.6l0.1,0l0-0.2h0.4
		l0.3-0.7l0.1,0V6.3l0.2,0.1l0.2-0.3l-0.2-0.2l0.4-0.3l1.2-0.8l2.5-1.1l3.3-0.6l0.6,0l0.7,0.2l0.2,0.2l0.2,1.8l0,0.3l-1.5,1.8
		L256,7.8l-0.6,8.8l-0.7-0.1l0,0.3l0.2,0.6l-0.1,0.2l0.1,0.3l-0.1,0.5l0,0.6l0,0.6L255,20l-0.2,0.6l0.4,0.1l-0.1,0.3v0.2l-0.3,0.2
		l-0.1,0.3l0.2,0.2l-0.3,0.5l0,0.4l0.4,0.1l0,0.3l0.2,0.1l0,0.3L255,24v0.6l0.2,0.2l-0.2,0.4l0.3,0.1l0.3,3.3l-0.1,0.4l-0.5,1.3
		l0.3,0.5l0.3-0.5l0.1,0.5l0.2,0.6l1.4,1.5L257.9,34.5z M244,18l-0.1-1.5l-0.4-0.4l-0.3,0.7h0.6l0.1,0.2l-0.2,0.5h-0.2l0,0.8
		l0.1-0.2L244,18z M244.3,18.7l-0.5-0.4l-0.4,0.1l0.6,0.2H244.3z M244.2,15.4l0-0.1l-0.3-0.2l-0.3,0.6h0.5l0.1,0L244.2,15.4z
		 M245.9,13l-0.6,0.1l0.2,0.1l0,0.3l0.2,0v0.2L245.9,13z M248.8,29.4v-0.2l-0.2-0.1l-0.5,0.1l-0.1,0.3l0.3,0.1l0.1,0.3l0.2,0
		l-0.1,0.5l0.3-0.3l0-0.3l-0.2,0L248.8,29.4z M249.4,31.4l-0.1-0.3l0.1-0.1l-0.3-0.5l-0.4,0.1l-0.1,0.2h-0.3l0.2,0.1l-0.3,0.2
		l-0.1,0.3l0.4,0.1l0.6-0.1v0.2L249.4,31.4z M248.8,30.9l-0.1,0.4h-0.2v-0.1l0.2,0v-0.2H248.8z M255.3,34.3l-0.4-0.4v0.4l-0.1,0.1
		l0.2,0.1l0.1-0.3L255.3,34.3z M274.2,21.1l-0.2,1.6l-0.4,2l-0.8,2.5l-0.4,0.9l-0.3,0.5l-0.1-0.1l0.1-0.4l-0.5-0.5l-0.3,0.2v0.3
		l-0.5,0.3l-0.1,0.6l-0.6,0.7V30l-0.4,0.1l0,0.8h0.2l-0.2,0.4H269l0-0.3l-0.9-0.3l-0.5,0.4l-0.2,0.4h-0.1v0.2l-0.5,0.6l0.3,0.4
		l0.1,0.3l-0.1,0.4l-0.2,0.3l-1.2,0.7l-2,0.8l-1.7,0.4l-1.1,0.1l-0.9-0.2l-0.5-0.4l-0.1-0.8l0.1-1.3l1.3-1.3l0.6-2l0.4-0.2l-0.2-0.1
		l0.2-0.2l0-0.6h0.3v-1l0.1-0.8l-0.1-0.1l0.1-0.6l0-0.8l0.2-0.3l0.1-0.4l0.3-0.4l-0.2-0.1l0.1-0.1l0.1-0.4l0.3-0.6l-0.3-0.6l0.3-0.4
		l-0.3-0.6l0.6-0.8l-0.2-0.2l-0.2,0l-0.2-0.3l0.1-0.1l-0.7-0.1l-0.2-0.2l-0.1,0.6l-0.1-0.8l0.2,0v-0.4l0.1,0l0-1.6l-0.2-0.6
		l-0.3-0.5l0.1,0l0.3,0l0.1-0.3l-0.1-0.3l-0.2,0.3l-0.1-2.7h0.2l0,0.4l0.1,0.1v0.7l-0.1,0.1v0.2l0.4,0.2l0.1-0.4l-0.1-0.6l0.4-0.3
		l0.5,0.2l0.2,0l0-0.2l0.1-0.1l-0.1-0.2l0.1-0.1v-0.6l-0.2-0.2l0.2-0.4l0-0.7l0.1-0.4l-0.1-0.3l-0.5-0.3l-0.5-0.1l-0.1,0.3l0.3,0.4
		l-0.2,0.1l-0.1,0.7l-0.6-0.3l0-0.1L261.5,9l-0.3-1.2l-0.3-0.6l-1.2-1.3l-0.1-0.2L259.4,5l0-0.4l0.2-1.1l0.2-0.2l0.3,0l0.2,0
		l0.5,0.5l0.1-0.1h0.2l0.3,0.4l0.2,0.1h0l0.3-0.6h0.3l0.3-0.3l0.2,0.3l0.5,0.1l-0.2,0.1l0.4,0.5l0.3,0.1l0.3-0.1l0.4-0.3l2.5,1.1
		l-0.3,0.1l0.4,0.2h0.3l0.1,0.1l-0.3,0.3l0.2,0.1l-0.1,0.4l0.3,0.1l0.1,0.2l-0.1,0.1l0.1,0.3l0.8,0.1l0.3,0.2l0.1-0.1l0.2,0.3
		l0.5,0.3v0.4l0.5,0.1l0.5,0.5l0.1,0.4l0,0.7l0.3,0.3l0.2,0.3l0,0.1l0,0.2l0.4,0.1l0.2,1.1l0.3,0.2v0.2l-0.1,0l0.1,0.2l0.2-0.1
		l0.3,0.5l0,1.1l0.1,0.5l0.2,0v1.4h0.4v0.9l0.1,0.8l-0.1,1.2l0.2,0.1l-0.1,1.2L274.2,21.1z M262.9,12.6l-0.1,0.4l-0.1,0.5h-0.2
		l-0.1-0.3l0-0.3l-0.1-0.3l0.1-0.8h0.3L262.9,12.6z M267.9,31.8h-0.3v-0.2L267.9,31.8z M268.9,31.8l-0.4,0.1l-0.1-0.1H268.9
		L268.9,31.8z"/>
	<path class="st0" d="M293.2,33.8l-0.1,0.5l-0.2,0.6l-0.2,0.1l-0.2-0.1l-0.5,0.4l-1.1,0.2h-1.3l-0.4-0.4l-0.4-0.2l-1,0l-1.6-0.3
		l-0.1,0.2l-0.5-0.4l-1.5-0.1l0,0.4l-0.7-0.1l-0.1,0.4l-0.5,0.1l-2,0v-0.1h-0.6l-0.1-0.2l-0.3,0l0,0.3l-0.9,0V35l-0.5-0.1l-1.4-0.2
		l-0.1-0.1l-0.2-0.9l0.2-0.7l1.7-0.8l0.3-0.2l0.2-0.2l0.2-1.6l0-2.1l1.6-0.3v-0.4h-0.1l0-0.3h0.3v0.3l0.5-0.2l0,0.2h0.3l-0.4,0.3
		l-0.1,0.4h0.5l0.4-0.1l0.2-1.1l0.4-0.4l-0.5,0l-1.3,0.5h-0.9l-0.5,0.1l-0.2-0.2l-0.3,0l0-0.2l0.5-0.1l0.3-0.3H279v-1h0.2v-0.6
		l-0.3-1l0.3-2.2l-0.1-1.1l0.1-1.1l0.2,0.1v0.2h0.6l0-0.9l0.5-0.6l-0.2-0.3l0.1-0.1v-0.3l0.2-0.5l-0.6-0.3l-0.2-0.3l0.4-0.1
		l-0.2-0.8l0.1-0.7l-0.4-0.5l0-0.2l0.2-1.4l-0.7-0.5l0-1.8l0-0.7L279,7.3l-0.2-0.4l-2.1-1.1l-0.1-0.6l0-0.4l0.1-0.5l0.4-0.4l0.9-0.3
		l1.7-0.1l0.4,0.1l0.4,0.3l0.6-0.4l0.7,0.8l1.4-0.2l0-0.3l2,0l0.1,0.1l0.1-0.1l0.5,0l-0.1,0.2h0.3V3.7l0.3,0.2l1.2-0.1V3.6l1.3-0.1
		l1.2,0.3l0.3,0.3l0.1,0.6V8l-0.4,0.4l0.3,0.7l-0.3,0.3l0,0.4l-0.4,0.2l0.3,0.4h-0.4l-0.1,0.3l0.3,0.1v0.1h-0.1l0.1,0.5l-0.3,0.1
		l0,0.9l0.6-0.1l0.4,0.1l-0.3,0.4l-0.2,0.3l-0.1,0.4l-0.5,0.1v0.4h0.8l-0.1,0.2l0.2,0.4l0,0.4l0.4,0.2l0,0.6l-0.3,0v0.3h0.1l0,0.5
		l0.2,0.3l-0.4,0.4l0.2,0v8.6l-0.3-0.1l-0.3,0.3l0.1,0.2V27l0.1,0.2l0.3-0.1l0.1,0.2l0,2.5l0.1,1.6l-0.4-0.1l-0.2-1.2l-0.2,0.8
		l0,0.3l0.1,0.8l0.9,0.1l0.8,0.2l1.1,0.5l0.3,0.4L293.2,33.8z M279.9,30.5l-0.7-0.2l0,0.2l0.4,0.2l0.3,0L279.9,30.5z M280.8,26.1
		l0-0.2l-0.6,0.1l0,0.2l0.4,0l0.2,0L280.8,26.1z M286.5,27.3c0-0.2-0.1-0.4-0.3-0.4v0.3L286.5,27.3z M287.4,27.1l-0.1-0.6l-0.3-0.1
		v0.4l0.1,0.3L287.4,27.1z M288.2,25.7v-0.3l-0.2-0.2l0,0.1L288.2,25.7z M288.7,23.8l-0.4-0.4l0,0.2l0.4,0.5L288.7,23.8z M290.1,26
		l0-0.2l-0.2-0.2l-0.1,0l-0.2,0l-0.1,0.3l0,0.1l0.2,0.2l0.1,0l0.1,0l0.1-0.1L290.1,26z M302.4,12.6l-0.1,0.3l-0.3,0.3l-0.8,0.1
		l-1.2-0.3l-0.2-0.2l-1.3-2L297,9.1l-0.4-0.3l0.3-0.2L296.8,8l-0.3-0.4l-0.2-0.1l-0.4,0.1L295.6,8l-3-1.3l-0.2-0.3L292.1,5l0.2-1.1
		l0.1-0.1l0.6-0.1l1.4,0l0.1,0.2l0.8-0.1l0.5,0.5l0.5,0l0.6,0.1l0.5-0.1v0.2l0.3-0.1l0.4,0.1l0.3-0.3V3.8l2.4-0.2h0.3l0.6,0.2
		l0.2,0.6l0.1,0.4v0.2l-0.6,1.3l0.1,0.1l-0.1,0.2l0.2,0.2l0.2-0.3l0.2,1.4v0.1l-0.5,0.4l0.1,0.7l-0.1,0.3l0.3,0.3h0.3v0.8
		L302.4,12.6z M298.1,21.8l-0.1,0.7l0.1,1.5l-0.2,1.2l-0.2,0.2l-0.5,0.1l-0.4,0l-0.6-0.1l-0.5-0.4l-0.4-0.6l-0.2-0.9l0.3,0v-0.3
		l-0.1,0l-0.1-0.4l-0.6,0l-0.1-0.4l-0.4-0.1l-0.6-0.6l-1.1-0.9l-0.1-0.2l-0.1-1l0.1-1.4l2.3-2.3l1-2l0.3-0.5l0.5-0.1l0.7-0.1
		l0.5,0.1l0.3,0.3L298,15v0.5h-0.5v0.2h0.1l-0.1,0.3l0.1,0.6l0.2-0.2v0.2h0.1V17h-0.2l-0.1,0.2l0.3,0.3l-0.1,0.5l-0.4,0.4l-0.1,0.4
		l0.3,1.1l-0.1,1.2v0.6h0.2l0-0.2l0.1,0L298.1,21.8z M296.5,8.4l-0.4,0.1l-0.1,0l0-0.1l0.1-0.2L296.5,8.4z"/>
	<path class="st0" d="M331,34.3l-0.2,1l-0.2,0.2l-1.3,0.2l-2.6-0.4l-1.7-0.6l-2.1-1.1l-1.7-1.2l-0.3-0.6l0.2-0.3l-0.3-0.2h-0.4
		l-0.7-0.6l0.1-1.2l-0.7-0.3l0.5,0l-0.4-0.1l0.2-1l-0.5-0.2l-0.5,0l0.2,0l0,0.5l-0.4,0l-0.1-2.1h-0.2L318,26l-0.1-0.3l0-0.7
		l-0.4-0.2l-0.1-0.3h-0.6l-0.1-0.6l-0.1-0.8l-0.2-3.4l0.1-3l0.2-1.5l0.7-2.7l1.9-3.7l0.3-0.4l0.4,0.4l0-0.3l0.1-0.2l-0.3,0l0.2-0.4
		l2.1-2l2.4-1.5l0.5-0.2l0.1,0.2h-0.1l0,0.2l-0.4,0.3l-0.1,0.4l0.7,0.5l0.7,0.2l0.1-0.1l-0.2-0.3h-0.4l0.2-0.2V4.8l0.7-0.5l0.3,0
		l0.3-0.4l0.6-0.6l0.2-0.1l1-0.1l1.2-0.1l0.7,0.2l0.2,0.2l0.1,2l-1.6,2L329,7.8l-0.2,1.1l0,0.5l-0.3-0.1l-0.2,0.1v0.2l-0.5,0
		l-0.1,0.4l0.2,0.1l-0.4,0.2l-0.7-0.5l-0.3,0l0.1,0.5l-0.1,0.2l-0.6,0.2l-0.3,0.4l0.4,0.2l0.1,0.4l-0.5,0.2l-0.1,0.2l0,0.2l0.1,0.3
		l0.1,0h0.5l-0.4-0.3l0-0.1l0.5,0.1l0.3-0.4l-0.2-0.2l1.1,0.1l1.1-1.5l0.2-0.3l0.1,1.2l-0.3,2.1V14l0.1,0.2l-0.2,0.2l-0.3,1.1
		l-0.2,0.2l-0.4-0.5l0.2,0l0.1-0.6l0.3-0.2l-0.3-0.2l-0.5,0l-0.1,0.3l0,0.8l-0.3,0.1v0.3l0.2,0.3l0.1,0.4l0.2,0.1l-0.2,0.6h0.3
		l-0.4,0.4l0.3,1l0.5,0l0.2,0.1l0,0.1v0.5l0.3,0.7v0.9h-0.1l0.2,0.8l-0.4,0.7l0.4,0.1l-0.1,0.5l0.1,1.6l-0.1,0v0.4l0.2,0.1l0.3,5.1
		l0.5,1.6l0.3,0.5l-0.3,0.3l0.2,0.3l0.6-0.3l0.3,0.4l0.3,1.2V34.3z M317.4,22.6v-0.2h-0.2l-0.1,0.3L317.4,22.6z M319.5,9.8l-0.3-0.4
		H319l-0.2,0.2l-0.4,0.9l-0.2,0.7l0.3,0.1l0.2-0.8l0.3-0.1l0.1-0.5L319.5,9.8z M319.6,23.8l-0.2-0.7l-0.7-0.3l0.2,0.4l-0.1,0.3
		L319.6,23.8z M319.6,27.3l-0.4-0.2H319l-0.1,0.1v0.2l0.2,0.2l0.2,0L319.6,27.3z M323.7,6.4l-0.1-0.1L323,6.5l-0.1,0.2l0.5,0.1
		L323.7,6.4z M324.3,5.8l-0.1-0.2H324l0,0.3l0.2,0.2L324.3,5.8z M325.4,15.2l-0.3,0l0-0.2h-0.5l0,0.2l0.6,0.1L325.4,15.2z
		 M325.8,13.7L325.8,13.7L325,14l-0.1,0.2v0.2l0.3,0.2l0.2-0.1l0-0.3h0.2L325.8,13.7z M326.2,18v-0.3l-0.1-0.1l-0.1,0l-0.2,0
		l-0.1,0.2v0.2l0.2,0.2L326.2,18z M326.7,16.8l-0.3-0.3l0-0.5l-0.4-0.2l0,0.3l0.4,1v-0.1L326.7,16.8z M326.3,10.2l0-0.3l-0.3,0V10
		L326.3,10.2z M326.6,9.3L326.3,9l-0.1,0.1l0.3,0.3L326.6,9.3z M327.1,8.9l-0.3-0.3l-0.2,0.3l0.3,0.2L327.1,8.9z M327.5,9.6
		l-0.4-0.3L327,9.5l0.2,0.2L327.5,9.6z M342.9,14l-0.1,0.6l-0.1,0.2l-0.2,0.1l-0.8,0.1l-1.2-0.1l-0.4-0.4l-0.4-0.9l0-0.6l-0.3,0
		l0-0.3l0.2,0l0.1-0.3l-0.5-0.1l-0.4-0.2l-1.3-2.4l-1.2-1.3l-1.2-1l-2.6-1.4l-0.2-1.2l0.1-0.9l0.1-0.3l0.3-0.3l0.8-0.2l2.5,0.5
		l0.5,0.2l-0.4,0.7l0.1,0.8H336l0.2,0.3l0.3,0l0.6-0.8l0.2-0.1l0.3,0l0-0.4l0.7,0.1l-0.1,0.4L337.8,5l-0.1-0.1l-0.3,0v0.6l-0.2,0.1
		l0.3,0.5l0.3,0.1l0.2,0l0.4-0.3l0.3-0.4h-0.3L338,5l0.6-0.7V4.2l0.6-0.2l1.2-1.1h0.1l1.1,0.3l0.5,0.2l0.5,0.4l0,0.1L342.5,8
		l0.3,3.4l-0.3,0.6v0.5l0.3,0.1l0.1,1.3l-0.2,0.1L342.9,14z M343.3,27.5l-0.2,1l-1.1,2.4l-0.3,0.5l-0.7-0.2l-0.1,0.9l-0.5,0.2
		l-1.1,1.1l-0.7,0.3l-0.8,1.1l-1.9,0.8l-1.8,0.1l-1.1-0.2l-0.2-0.2l-0.1-1l0-1.1l0.2-0.5l3.1-1.3l1.2-0.8l0.8-0.8l1.1-1.5l0.2,0.5
		l0.4,0.1l0.2-0.5l0.1-0.8l0.2,0l0-0.2l-0.3,0l-0.1-0.3h0.1v-0.3h0.2l-0.1-0.3l0.5,0v-0.2l-0.2-0.1l0.5-0.1l0.3,0l1.1,0.3l0.8,0.7
		L343.3,27.5z M340,12l-0.1-0.8l-0.8,0l0.1,0.5L340,12z M339.9,28.1h-0.2l-0.1-0.3l0.2,0L339.9,28.1z M340.6,27.1l-0.3-0.2l-0.1,0.2
		l0.2,0.2L340.6,27.1z"/>
	<path class="st0" d="M361.8,33.8l-0.2,0.8l-0.5,0.5l-1.7,0.4l-4-0.1l-5.1,0.1l-0.5-0.1l0.2-0.2l-0.3-0.3l0.2-0.1l0.2,0.3l0.2-0.2
		l0.3,0.2l0.1-0.5h0.3l0.2-0.2l-0.3,0.1l-0.3-0.3l0,0.2l-1.3,0.1l0,0.2l-0.2-0.3v0.2l-1.1,0.2l-0.4-0.3v0.3l-1.3,0.1l-0.3-0.1
		l-0.3-0.3l-0.2-0.9l0.1-0.5l1.8-0.9l0.3-0.2l0.1-0.2l0.2-1.8v-2.9l0.3,0l0.1-0.1l0.3-0.1l-0.5-1.1l0.2-0.2l-0.3-0.3l-0.1-0.3l0-0.3
		l0.2-0.7l0-0.7l-0.1,0l0-0.5l0.5-2.1l-0.3-0.8l0.1-1.9v-0.5l1.2-0.3l0.1-0.1v-0.4l-0.2-0.6l0.4-0.1l0.2-0.4l-0.3,0l-0.2,0.3
		l-0.4-0.1l0.2-0.1l-0.1-0.1l-0.5,0.3l-0.5,0.4l-0.3,0v-0.6l-0.2-2.2l-0.1-5.9l-0.3-0.6l-1.9-0.9l-0.2-0.5l0-0.3l0.1-0.6l0.4-0.4
		l1.2-0.4l0.5,0l0,0.4l1,0.1l0.4-0.2l0.6,0.1L349,4.3l0.1,0.5l-0.3,0.5l0.2,0.2l0.4-0.2l0.4,0.3h0.2l0.3-0.6L351,5l0.2-0.5l0.7-0.1
		l0.2-0.2l0.7,0.2l0.2-0.3h0.7l0.9-0.2l3-0.2l0.1,0.3l0.6,0.1l0.1-0.3l0.4-0.1l0.4-0.2l0.5,0.1l1.6,0.4l0.2,0.2l0.2,0.5l0,0.4
		l-0.2,0.5l-0.1,0.1l-1.9,0.9L359.3,7l-0.1,0.2l-0.1,1v4.7l-0.3,1.5l0.1,0.9l-0.2,0l0,0.2l0.2,0.2V16h0.1v0.8l-0.2-0.3l0-0.3l-0.2,0
		l0,0.2l0.2,0.2l0.1,0.4l-0.2,0.1l0.2,1.2l-0.4,0.1l0.2,0.6h-0.3l-0.1,0.5v0.6l-0.4,0.1l0.2,0.3l0.5,0.3l0,0.4l-0.5-0.2l0,0.1
		l-0.3,0.1l0.4,0.5v0.5l0.2,0l0.4,0.4l-0.4-0.1l-0.2,0.1l-0.3-0.6l-0.2-0.1l-0.3,0l0.2,0.4l-0.1,0.5l-0.2,0l0,0.3l0.5,0.4l-0.3,0.4
		h-0.2l0.5,0.7l0.5-0.2l0.2-0.6l-0.5-0.1l0.2-0.3l0.3,0.3l0.2-0.5h0.3l0,0.5l-0.5,1.1l0-0.3l-0.1,0.3v0.3l-0.2,0v0.2l0.3,0.2
		l-0.3,0.3l-0.7,0.3l0.3,0.6l0.5,0.5v0.2l0.1,0.7l0.1-0.1l0.1,0.1l0.2-0.2l0.1,0.3L359,29l-0.1,0l-0.5-0.3l0.1,0.5l0.2,0.1l0.1-0.1
		l0.3,0.2v1.5l0.2,0.8l0.3,0.4l0.3,0.1l1.7,0.8l0.2,0.3L361.8,33.8z M348.8,4.4l-0.3,0l-0.4,0.2l0.6,0.1L348.8,4.4z M349.5,13.9
		L349,14l-0.3,0.1l-0.2,0.3l-0.1,0.3l0,0.5l0.3,0l-0.1-0.2h0.2l0.1-0.2l0.4,0.1v-0.6L349.5,13.9z M351.9,34.6l-0.3-0.3l-0.1,0.3
		l0.2,0.1L351.9,34.6z M357.6,13.7l0-0.1l-0.2-0.2l-0.3,0.1L357,13l-0.5,0.2l0.1,1.2l0.6-0.1l0.2-0.2l0.2-0.2L357.6,13.7z M357,16.2
		l-0.4-0.2l0,0.4l0.4,0.1L357,16.2z M358.1,16.6l-0.1-0.5l-0.2,0.2l-0.2,0l0,0.1l0.4,0.1L358.1,16.6z M359.1,12.3l0-0.6H359l0,0.7
		L359.1,12.3z"/>
	<path class="st0" d="M374.2,33.9l-0.1,0.6l-0.6,0.6l-1.8,0.4l-3.6-0.1l0.2-0.2l0,0.1h0.2l0.2-0.3l0.1,0.2l0.2,0l0.1-0.2l-0.3,0
		l0.4-0.5l-0.2-0.1v-0.2l-0.3,0.3l-0.6,0.1l-0.1,0.2l-0.3,0.1v0.2l-0.5,0.1l-0.3,0.2l-0.5,0.1l-1.1-0.1l-1.5-0.4l-0.4-0.4l-0.1-0.6
		l0.1-0.6l0.2-0.3l0.2-0.1l1.5-0.5l1.2-0.4l1.4-0.1l-0.1-0.8l-0.3,0l-0.3-0.3l0-0.2l0.1-1.8l0.2-0.1l0.1-0.5l-0.1-0.8l0.2,0.2V26
		h0.5l0-0.5l-0.1-0.7l-0.3-0.7l-0.4-0.4l0-0.3l0.4,0l0.3-0.3l-0.3-0.2l-0.2,0l-0.1-0.2l0-0.7l0.3,0l0.2-0.2v-0.3l0.2-0.2l-0.7-0.7
		l-0.3-0.2l0.1-8.1l0.1-0.1l0.1,0l0.2,0.1l0.1,0.1l1.8,2.9l0.7,2.1v0.6l-0.2-0.1l-0.2,0.4l0.1,0.4h-0.4l0,0.5l0.5-0.2l-0.1-0.2
		l0.4,0.1v11.4l0.2,1l0.3,0.5l2.3,1.1l0.7,0.2l0.2,0.5V33.9z M391.5,33.8l-0.1,1.1l-0.2,0.2l-0.6,0.2l-0.2-0.4h0.4l-0.1-0.4l0.1-0.1
		l0.1-0.5l-0.8-0.2l-0.2,1l-0.2,0.3v0.3l-0.1-0.1l0,0.3l-2.7,0.1l-2-0.4l-0.3-0.2l-1.5-2.1l-1-1.5l-0.3-2l-0.2-0.3l-0.5-0.4l0,0.4
		l-0.1,0l-0.1,0.3l-0.2-0.2h0.1v-0.3l-0.2-0.1v-0.1h0.1l0.2-0.2l0.1,0.1l0.5,0l-0.1-0.4l-0.4-0.1l-0.1,0.3l-0.1-0.4l0.8-0.2L381,27
		v-0.9l-0.5,0.2l0.1,0.1h0.2l-0.1,0.2l-0.5,0.1l-0.7-0.1l-0.2-0.1l-0.2-0.6l-0.2-0.4l0.1-0.3l-0.2-0.4l-0.7-1.8l-0.2-0.3l-0.2-0.1
		l-0.9,0l-0.2-0.6l-0.4-0.8l-0.2-0.1l-0.5-0.1l-0.5-0.7l0.5-0.3l0.1,0.2h0.2l0-0.4l-0.8,0.1l-0.2-0.4l0.2-0.1l-0.6-0.1l-7.4-11.6
		h0.5l0.4-0.3l0.3,0V6.6l-0.7,0l-1.3,0.2l-0.3,0l-1-0.3L363.9,6l-0.3-0.4l-0.1-0.5l0.1-0.6L364,4l2.7-0.4l1.7,0l0.3,0.6l0-0.3
		l0.7,0.2l0.5-0.3l0.3,0.1l0.5,0l0-0.2l1.2,0.1l0.1-0.1h0.2l0.2,0.2h0.3l0-0.2l1.1-0.1l0.1,0.5l0.2-0.1l0.7,0.3l0.1-0.5l-0.3-0.2
		l-0.5,0.1V3.6l1.8-0.1l1.4,0.4l1.6,2.1l0.3,0.5L379,6.7l0.5,0.8v0.5h0.7L380,7.8V7.4h-0.2l0-0.2l0.4,0.4l0,0.5h0.2l1,1.5l-0.8,0.2
		L381,10l0.3,0.1l0.4,0.5l0.6,0.2v0.4h0.3l-0.4,0.2l0.5,0.5l0.1,0.6h0.2l0,0.5l0.3,0.5l0.3,0.6l0.6,0.3l0,0.4l-0.5,0.1l0,0.2l0.1,0
		l0,0.2l0.2,0.2h-0.2l-0.2,0.4l0.3,0l0.1,0.2l0.3,0l0.2,0.1h0.4l0.2,0.3l0.5-0.1l4.6,7.2l0.8,1.7v0.3l-0.5,3.5l-0.1,0v1.5l0.1,0.3
		l0,0.4l0.2,0.2l0.2-0.3L391.5,33.8z M368.7,33l-0.1-0.2l-0.6-0.1L368,33l0.3-0.1L368.7,33z M369.7,34.9l-0.1-0.5l-0.2,0.3
		L369.7,34.9z M370,19.8v-0.5l-0.5,0.2l0.3,0L370,19.8z M370.2,34.3l-0.5-0.4v0.3l0.5,0.3L370.2,34.3z M376.6,4.2l-0.4-0.3l-0.7,0
		l0,0.2l1,0.6L376.6,4.2z M376.1,20.2l-0.4-1.2l0,0.6L376.1,20.2z M378.9,6.8l-0.2-0.2l0.1-0.3l-0.5-0.3l-1.2,0l0,0.9l1,0.3
		l-0.3,0.7l0.4,0.3l0.6-0.7L378.9,6.8z M378,8.4l-0.3-0.2l-0.5,0.1l0.2,0.4L378,8.4z M384,16.1l-0.3-0.3l-0.1,0.3l-0.8-0.1l0.2,0.3
		h0.1L384,16.1z M383.7,15.2l-0.1-0.3l-0.4-0.3l0,0.4h-0.2l0.1,0.5L383.7,15.2z M385.4,17.7l-0.5-0.4l-0.1-0.4l-0.5,0l-0.1,0.1
		l-0.1,0.1v0.2l0.1,0.6l0.2,0.1l-0.1,0.2l0.2,0.5l0.4-0.1l0-0.4l-0.3-0.4l0.4,0.2l0.1-0.4l0.3,0.2L385.4,17.7z M395.4,5.1l0,0.4
		l-0.2,0.3l-2.4,1.1l-0.6-0.2l0.1-0.3l-0.1-0.2h0.3l0.2,0.3l0.2,0L392.7,6l-0.1,0V5.6l0.1-0.2L392.6,5l-0.5,0.2v0.7l-0.5,0.2
		l-0.1,0.1l0,0.4l0.4,0.6l-0.1,0.4l-0.3,2.4l0,2.4l-0.2,0.2l0,1.7l-0.3,1l0.4,0.4l0,5.2l-0.1,0.1h-0.1l-0.2,0l-2.1-3.1l-0.6-1.8
		l0-7.3L388,7.8l-0.4-0.7l-0.5-0.3l-2.3-1l-0.2-0.3l-0.2-0.7l0.1-0.4l0.3-0.4l1.5-0.5l1,0l-0.1,0.1l0.2,0.7l1.2,0.1l1.2-0.1l0.3,0.2
		L390,3.8l3.1-0.2l1.7,0.4l0.5,0.5L395.4,5.1z M385.1,15.6l-0.3,0l0-0.3l0.2,0L385.1,15.6z M386.1,20.1l-0.3-0.5l0.1-0.4l-0.1-0.1
		l0-0.4l-0.5-0.1v-0.3l-0.1-0.2l-0.2,0.3l0,0.3l0.3,0.7l-0.2,0.5l0.1,0.1L386.1,20.1z M386.4,20.7v-0.3h-0.5l0,0.2L386.4,20.7z
		 M386.9,21.7v-0.4l-0.6-0.3l-0.2,0v0.6l0.4,0.1l0.1,0.2L386.9,21.7z M387,23l-0.3-0.5l-0.6,0.1l0.2,0.2L387,23z M386.6,21.9
		l-0.2-0.2v0.2l-0.2,0.1l0.4,0.1L386.6,21.9z M389.4,3.7h-0.2L389,4.2l-0.8,0l-0.6-0.1l-0.1-0.2V3.5L389.4,3.7z M390.9,33.1
		l-0.4-0.2l0.1,0.5l0.2,0L390.9,33.1z M391.2,31.9l-0.4-0.1v0.4L391.2,31.9z"/>
	<path class="st0" d="M411.6,5.9l-0.2,6.1l-0.7-0.1l0,0.4l-0.7-0.4V12h-0.1l0.5,0.6l1.2,0.1l0,0.3l-0.2-0.1l0.2,0.6l-0.4-0.1l0,0.5
		l0.4,0.8l0,0.2l-0.1,1.9l-0.4-0.2l-0.1,0.4h0.4l0.2,0.4l0,0.2l-0.3-0.2l-0.3,0.1l0,0.6l-0.2,0.2l0,0.4l-0.1,0.2l0.2,0.2l-0.4,0.4
		l-0.3,0l-0.4,1.2l0.5,0.1l0.9-0.6l-0.1-0.1l0.2-0.7l0.3-0.3l0.1,3.8l-0.1,8.6H411l-0.1,0l0,0.2l-0.2,0.5l0.2,0.2h0.6l0,1.8
		l-0.1,0.7l-0.3,0.2l-1.1,0.2l-1.2,0l-0.1-0.5l-0.2-0.3l0.3-0.7l0-0.6l-0.3,0l0.1,0.1l-0.2,0l-0.2,0.4l0.1,0.5l-0.2,0.9l-5.2,0
		l-0.1-0.3l0-0.4l-0.2-0.1l-0.5,0.3l-0.7,0.3l-0.2,0.2l-1.8-0.1l-1.2-0.4l-0.4-0.4l-0.1-0.6l0.1-0.5l0.1-0.1l1.9-0.9l0.5,0.4
		l0.1-0.1v-0.2l0.3-0.1l0.2-0.2h0.2l0.4-0.3l0-0.7h0.2l-0.1-0.4l-0.3-0.3v-0.3l-0.5-0.4l0-1.5l-0.5-0.5l0.3,0l-0.1-0.7l0-1.2l0.6,0
		l0.1-0.2l0.2,0l0.2-0.3l-0.2-0.7h-0.4l0.2-0.2l-1-0.2v-1.8l0.1-1.1l-0.1-3.8l0-0.3l0.3-0.9l0-0.6l0.1-0.2h0.1l0-0.8l0.1-0.7
		l-0.6-0.4l0.1-1.1v0.4l0.5-0.6l-0.6-0.1v-1.2l-0.2-3.5l-0.1-0.2l-1.4-0.7L397.8,6l-0.2-0.5l-0.1-0.4l0.1-0.5l0.5-0.5l0.9-0.3l1-0.2
		l4.8,0.1l0.2,0.6l0.2-0.1l0-0.3l0.1-0.1l1,0l0.2,0.4l0.4,0.1l0.7,0l0.1-0.1l0.3-0.5l0.7,0l0.3,0.6l0.4-0.3h0.3V3.7l0.6,0l0.5,0.1
		l0.2,0.3L411.6,5.9z M400.3,12.8h-0.2v0.3h0.2L400.3,12.8z M400.8,21.7l-0.2,0l-0.1,0.4l0.1,0.1L400.8,21.7z M401.1,30.3l-0.2,0.2
		l-0.1,0l0-0.4l-0.1-0.3v-0.2l0.2,0l0,0.3L401.1,30.3z M407.7,34.7v-0.2l-0.8-0.2L407.7,34.7z M407.7,34.1v-0.4l-0.5-0.2l-0.1,0.2
		l0,0.2l0.2,0.2H407.7z M410.5,8.5V8.3L409.9,8l-0.3,0.3l-0.2-0.1l-0.2,0.5l0.3,0.4l0.3,0.3l0.6-0.2V9.1L410.1,9l0-0.2L410.5,8.5
		L410.5,8.5z M409.9,17.6l-0.3-0.4l0.2,0.6L409.9,17.6z M419.1,24.2l-0.1,0.9l-0.4,0.4l-0.9,0.2l-0.6-0.1l-0.2-0.2l-1.6-2.8
		l-1.8-1.7l-0.3-0.6l-0.1-0.8l0.3-1.3l0.3-0.4l1.2-0.9v0.2l0.4,0.1v-0.5l0.8-0.2l0-0.9l-0.1-0.3l0.9-1.8l0.1-0.1l0.7-0.1l1,0.2
		l0.3,0.3l0.2,1.3l-0.1,2.6l-0.1,1.8l0,0.8l-0.1,0.2l-0.1,0.7h0.3l0.1,0.5L419.1,24.2z M423.5,12.3l-0.2,0.6l-0.3,0.3l-0.8,0.1
		l-1.1-0.2l-0.2-0.1l-1.4-2.1l-2-2.2l0.3-0.2l-0.3-0.2l-0.1,0.1l-0.3,0L416.5,8l0.6,0l-0.5-0.1l-0.4,0l-2.7-1.2l-0.1-0.1l-0.2-0.5
		L413,5.4l0-0.7l0.1-0.7l0.1-0.2l0.3-0.1l0.6,0v0.1l0.5,0.1l0.1-0.2l0.2,0.2l0.5-0.2l0.5,0.3l0-0.2l0.3,0l0.2,0.4l0.2,0l0.1,0.1
		l0.5-0.4l2.3,0l2.5-0.1l0.2,0l0.3,0.3l0.2,0.7v0.9l-0.3,0.1l-0.1,0.3l0.2-0.1l-0.3,0.4l-0.2,0.7l0.1,0.6l0.1,0.1L423,8l0,0.8
		l-0.2-0.4l-0.4,0.3l-0.1-0.7l-0.1,0.6l0.3,0.1l0,0.4l0.5-0.1L423.5,12.3z M424.5,25.7l-0.4,5.7l0,3.4l-0.1,0.4l-0.3,0.2v-0.3
		l0.1-0.1l-0.1-0.2l-0.4,0.1l-0.2-0.3h-0.4l-0.2,0.5l-0.6-0.5l-0.7,0.3l-1.6,0.2l-0.6-0.5l-0.2,0l-1.2,0.2l0,0.2l-0.4,0l0,0.1l-1,0
		l-1.4,0.3l-0.6,0l-0.6-0.4l-0.2-0.3l-0.2-1.2l0.2-1.2l0.2-0.2l2.4-1l0.4-0.2l0.1,0.3l0.4,0l0.3,0.1l0.3-0.5l0.6-0.1l0-0.3l0.4-0.1
		l0.8,0l0.1-0.1l0.1-0.1v-0.5h-0.4v-0.2l0.2-0.2h0.3v-0.4l0.4,0l-0.1-0.2l-0.2,0.1L420,28l0.3,0.6l0.1-0.4l-0.3-0.2l0.8-1.2l1.1-1.4
		l0.4-0.2l0.6-0.1l1,0.2l0.5,0.3L424.5,25.7z M423.4,35.2l-0.1,0.2h-0.5L423.4,35.2z"/>
	<path class="st0" d="M437.8,34.2l-0.1,0.5l-0.4,0.4l-1.1,0.3l-1.2,0.1l-2.9-0.1l-3.2,0.1l-1.6-0.6l-0.4-0.5l-0.1-0.3l0.2-0.9
		l2.8-1.2l0.2-0.2l0.2-0.4l0.4-2.9v-1.7l0.5-0.2l-0.1-0.9l-0.4-0.2l0.3-0.1l0.1-0.9l-0.2-1.2l0-0.1l0.2,0l-0.2-1.4l0.1,0v-0.6l0-1
		l-0.5-0.3v-2.1l0.4,0l0.2-0.2l-0.6-0.6l0-1.2l0.2-0.1l-0.1-0.4l0.1-0.6l-0.1-0.1l0-0.6l0.3-0.1l0.1,0l0.2,0.6l0.9,2.3l-0.2,0.3
		l0.1,0.4h0.2v0.2l0.1,0.1l-0.1,0.3l0.2,0.2l0.2,0l0.4,0.9H433l-0.1,0.1l0.6,0.3l0.1,0.1l0.2,1.8l-0.2,0.2l0.1,0.8l0.4,8.9l-0.8,0.4
		l0.2,0.9l-0.3,0l0.8,0.4l0.1-0.2l0.5,0l0.6-0.4l0.1,0.2l0.9,0l0.8,0.3l0.5,0.5L437.8,34.2z M448.7,15.8l-0.1,1.2l-0.4,1.7l-1,2.9
		l-0.4,0.7l-0.1,0.5l-0.2,0v0.7l-0.1,0.5l-0.3,0.7l-0.2,0.6l-0.6,1.1l-0.1,0.5l0.2,0.1l-0.3,0.1l-0.1,0.6l0,0.4l-0.3,0l-0.9,1.1v0.4
		l-0.5,0.3l-0.1,0.2l-0.9,0.7l0,0.5l-0.1,0.1v0.2l-0.1-0.1l-0.3,0l-0.2,0.3h-0.3v0.2l0.2-0.2l0.5,0.2l-0.4,0.7v0.6l0.3,0l0.2,0.2
		l0.4-0.1l-0.1,0.3h0.2l0.2-0.5h0.2l0.1-0.7l0.3-0.2v-0.1l0.4,0l-0.3,1l-0.4,0l-0.1,0.4l-0.4,0.5l-0.4,0.3l-0.4-0.3l-0.2,0l-0.4,0.6
		l-0.5-1.3l0.2-0.4l-0.3-0.3l0.6-0.3l-0.3-0.4l0.4-0.2v-0.3l-0.8,0.3l-0.1-0.3l0.3-0.1v-0.3l-0.6-0.5l-0.1-1.1l-0.2-0.4l0.1-0.1
		l-0.2-1.1l0.1-0.8l-0.2-0.1l0.2-0.4l-0.2-0.2l0-0.1h-0.4l-0.2,0.1l0,0.2l0.2,0.2l-0.1,0.1l0,0.5l-0.9-0.4l0.4-0.1l0-0.9l-0.6-0.2
		h-0.3l-3-7.9v-1.1l-0.7-0.3l0-0.3l-0.3-0.7l0.3,0v-0.4l-0.4-0.5l0-0.4l-0.2,0l0.1-0.2l-0.2-0.4h0l0-0.2l-0.2-0.2l0-0.2l-0.2-0.3
		l0-0.1l-0.2-0.3l0.2-0.1l-0.6-1.4l0.1-0.1l-0.1-0.4l-0.5-0.2l0.3-0.1l-0.1-0.6l0.2-0.3l-0.2-0.7L431,7.7l0,0.1l0.2,0.1l0.2,0.2
		h-0.6L429.6,7l-2-0.9l-0.4-0.3l-0.3-0.4l-0.1-0.5l0.1-0.7l0.2-0.3l1.3-0.3l0.6-0.1l0,0.1l-0.3,0.1L428.7,4l-0.3-0.2v0.8l0.5-0.1
		l0.7-0.3l0.4,0l0.2-0.2h0.4l0-0.2l0.2-0.1l1.4,0.6l0.5,0l0.3-0.1l0.4-0.3l0.1,0.1l0.3,0.1l0.2-0.3l1,0.1V3.9l0.6,0l0.3-0.3l0.2,0
		l0,0.2l1.5,0.5l0.2,0l0.1-0.4l-0.3-0.2l0.6-0.1l0.8,0.1l0,0.2l0.2-0.1l0-0.2l0.6,0l0.8,0.3l0.5,0.4l0.8,1.7l0.4,1.3l-0.4,0v0.3
		l-0.4-0.2l0,0.6l0.6,0.1l0,0.2h-0.2l0.2,0.2l-0.1,0.3h0.1v0.3l0.4,0.4l0-0.4h0.2v0.2l0.2,0l-0.1,0.1h0.3l-0.2,0.3l-0.1-0.1
		l-0.1,0.3l0.2,0.2l0.6-0.2l0.1,0.2h-0.2l-0.1,0.3l0.3,0.1l-0.2,0.5l0.3,0.1h0.1v-0.6l0.3,1.1l-0.2-0.3l-0.4,0.1l-0.1-0.1l0,0.3
		l0.4,0l0.2,1.4l0.1,0.3l-0.2,0l0.2,0.3l-0.3,0.2l0.4,0.6l0.4,0l0.1-0.4l0,0.3l0.5,0l0.6,0.7l0.2-0.1l0.2-0.4l1.4-4.1h0.2l0-0.5
		l0.6-0.3L448.7,15.8z M433.2,32.7l-0.5-0.1l-0.1,0l0,0.1l0,0.1L433.2,32.7z M433.5,20.3l-0.2-0.2l-0.3,0l0,0.3H433.5z M435.3,12.4
		L435,12l0.3-0.1l-0.1-0.4l-0.8-0.1l0.2,0.2v0.4l0.2,0v0.8l0.1-0.3H435.3z M435.6,13.8l-0.1-0.1l0.1,0l-0.4-0.3H435l0.1-0.1l0-0.4
		h-0.3l0,0.3l-0.3,0.8l0,0.1l0.9,0.5L435.6,13.8z M435.6,15.9h-0.1l-0.1-0.2l-0.3,0l-0.2,0.3l0.1,0.4l0.2,0.2l0.2,0l0.2-0.3
		L435.6,15.9z M435.5,15.3v-0.2l-0.1-0.1v-0.3l-0.3,0.5l0.2,0.1L435.5,15.3z M435.6,17.3v-0.5l-0.1,0h-0.2l-0.1,0.1l0,0.1l0,0.2
		L435.6,17.3z M439.4,24.7l-0.6-0.1l0.4,0.2L439.4,24.7z M439.6,25.7l-0.2-0.6l-0.1,0H439l-0.1,0.1v0.3l0.1,0.1L439.6,25.7z
		 M443.2,8.6l-0.2,0.1l0,0.1l-0.2-0.2l0.1-0.3L443.2,8.6z M443.4,10.8v-0.2h-0.3l0,0.2L443.4,10.8z M445.1,14.1l0-0.1l-0.4,0.1v-0.3
		l0.4,0V14.1z M445.4,15.3l-0.2-0.1l-0.4,0.1v0.1l0.2,0l0,0.7L445.4,15.3z M464.5,34l-0.1,0.5l-0.5,0.4l-1.4,0.5l-1.4,0.1l-0.2,0
		l-0.5-0.1l0.2-0.1l-0.1-0.6l-0.2-0.1v0.4l-0.8,0.1v0.1h-0.2l-0.4,0.1l-0.4,0l-1.2,0l-2.5,0l-0.1-0.3l-0.3-0.3v-0.1l-0.5,0l-0.2,0.5
		l-0.1-0.4l-1.3,0.3l0,0.4l-0.3,0l0,0.3h-1.2l-2-0.5l-0.5-0.5l-0.2-0.6l0.1-0.6l0.2-0.4l1.6-0.7l0.2-0.1l0.2-0.3l0.2-1.1v-1.2
		l0.1-0.2l0.4-0.1l-0.1-0.5l-0.1-0.2l-0.1,0.2l-0.1-0.9l0.4-0.4V27l0.6-0.1v-1.7l0.2,0.1l0.1-0.3l-0.5-0.4l0,0.2l-0.2,0l-0.1-0.4
		l-0.2-0.2l0.4-0.1l0-1l0.5-0.2v0.1l0.2-0.1l-0.5-0.9l-0.3-0.1l0.2-0.3l-0.1-0.3l-0.2,0.1l-0.2-0.7l0.2-0.4h0.5l-0.1-1.2l-0.2,0.1
		l0,0.7l-0.2,0.1l-0.1-0.1l-0.2-0.4l-0.1-0.4l-0.2-0.2l0-8.6l0.2-0.1V9.5l-0.3-0.1V7.7l0.1-0.6l-0.1-1.3l0.1-0.6l0.2-0.5l-0.1,0
		l0.1-0.7l0.6-0.2l0,0.1l-0.3,0l0.1,0.8l0.3,0l0.6-0.6l0,0.1l1.4-0.6l0.5,0.3l0.4,0l0.5-0.1l0.3-0.1l0.4,0.2l0.2-0.1l0.4,0.2
		l0.3-0.2l0.3,0.2h0.9l0.3,0.1l0.4-0.2l0.4,0l-0.1,0.3l0.3,0.3l0.1-0.6l0.4,0.6l0.4-0.5l0.5-0.1V3.5l1.2,0l1.6,0.3l0.8,0.3l0.2,0.2
		l0.2,1l0,0.3L464,5.7l-1.9,1L462,6.9l-0.1,0.2l-0.1,1.3l0,2h-0.7l0.1,0.4l0.1,0.1l0,0.5l-0.2,0.9l0.2,0.3l0,0.5l-0.3,0.7l0,0.8
		l-0.1,0.3l-0.4,0.3l0,0.4l-0.4,0.6l0.2,0.4l0.3,0v0.2l0.3-0.3l0-0.2l-0.1-0.1l-0.1-0.5l0.5,0.1l0.1,0.6l0.3,0.1l0.2-0.1l0.1,0.2
		v1.1l-0.1-0.2l-0.3,0.4l0.3,0.2l-0.4,0.6l0.5,0.6l-0.2,0.7l0.2,1.2l-0.1,0.6l-0.4,1.1l0.2,0.2l0.2,0l-0.1,0.4l0.2,0.1l-0.1,0.5h0.2
		l0,7.3l-0.8-0.5l-0.3,0.4l0.4,0.6l0,0.8l0,0.5l0.3,0l0.3-0.6h0.3l0.1,0.2l0.3-0.3l1.1,0.3l0.6,0.3l0.2,0.3L464.5,34z M451.2,8.2
		L450.7,8l0.1,0.3l-0.3,0.4l0.6-0.1L451.2,8.2z M451.7,18.8H451V19l0.6,0.1L451.7,18.8z M457.1,6.5l-0.1-0.3l0-0.7l-0.3-0.2
		l-0.1,0.2l0.3,0.3l-1.9,0v0.4l-0.5,0.1l-0.4,0.1l-0.3,0.4l0.4,0.1l0.1,0.2l0.2,0.1l0.1-0.4l0.2,0.1l0.2-0.2l0.3,0.1l0.1-0.1h0.4
		l0.3-0.2l0.2,0l0.8,0.1L457.1,6.5z M457.2,6V5.3L457,5.2l0,0.3L457.2,6z M458.8,5l-0.3-0.3l-0.1-0.3l-0.5,0.1l-0.4,0.2L457.3,5
		l0.4,0.8V5.5h0.4l0-0.2l0.2,0l0.1-0.4H458.8z M460.2,6.6l-0.2-0.1l0-0.3L459.7,6h-0.9l-1,0.3l-0.5,0.1v0.2l0.9,0.6l0.6,0l0.5,0.1
		l0.5-0.1l-0.1-0.3l-0.1-0.1h0.3L460.2,6.6z M459.1,4.7l-0.4-0.3l0,0.2l0.1,0.2L459.1,4.7z M461.1,6.2L460.5,6l0.1,0.1l-0.2,0.3
		L461.1,6.2z M461.4,34.2l-0.5,0l-0.4,0.4l0.5,0.6v-0.3l0.2,0L461.4,34.2z M461.1,13v-0.4l-0.2,0.1l0,0.2L461.1,13z M461.5,30.3
		l-0.1-0.3l-0.1,0.1v0.2l0.1,0.2L461.5,30.3z"/>
	<path class="st0" d="M477.1,15.1l-0.1,1.2l-0.3,0.8l-0.5,0l-0.1,0l-0.3,0.4l0,0.2l0.3,0.6l-0.3,0.1l0.2,0.2l-0.1,0.8l0.2-0.1
		l-3.4,11.5l-0.4,0l-0.1,0.4l0.8,0.2l0.1-0.1l0.3,0.7l0.3,0.4l1.8,0.7l0.4,0.3l0.2,0.6v0.1l-0.2,0.7l-0.6,0.6l-1.6,0.4l-4-0.2l0-0.5
		l-1.6,0.2l-0.7,0.2l-0.7-0.1l-0.7-0.2l-0.3-0.3l-0.1-0.4l-0.1-0.4l0-0.4l0.1-0.3l1.8-1l0.9-1.1l0.4-0.3l0.3-0.5l0.1-0.5l0.5-0.1
		l0.6-0.8l0.2-0.4l0.1-0.5l-0.2-0.2l0-0.4l-0.2-0.1l0-0.4l0.4,0l0-0.6h0.4l0.5-1.4l0-1.8l0.4-1.1v-0.6l0.4-0.7l0-0.7h0.7l0.4-0.2
		l0-0.1l0.3-2.6l0.2-0.5l0-0.3l0.1-0.4l0.2,0l0-0.6l-0.3-0.2l0.9-3l0.4-1l0.2-0.2l0.2,0l0.2,0l0.2,0.2l0.3,0.9L477.1,15.1z
		 M497.3,34.2l-0.1,0.7l-0.4,0.4l-2,0.4l-0.5,0l-0.2-0.4l-0.4,0l-0.1,0.3l-0.5,0.1l-0.9-0.1l-0.3-0.5l-0.7,0.1l-0.5,0.3l-0.1-0.2
		l-0.4,0.1l-0.3-0.2l0,0.2l0-0.2l-0.6,0l-1,0.2l-0.7-0.1l-1-0.5l-1.3,0.2l-0.3,0.3l-0.2-0.2h-0.3l-0.4,0.2l-1.1,0.3l-1-0.1l-0.9-0.2
		l-0.3-0.1l-0.3-0.3l-0.2-0.6l0-0.4l0.2-0.6l2-1l0.4-0.9l0.3-0.3h-0.2l0-0.4l0.2,0l-0.1-0.4l-0.5-0.3l-0.2-0.9l0.1,0l-0.2-0.8l0.2,0
		V28l0.2-0.1h-0.1l0-0.4l0.5,0.3l0.1,0l0.1-0.1l0.1-0.2l-0.1-0.3l-0.5-0.2l-0.3-0.4l-0.7,0.4l0-0.5l-1.2,0.5l-2.3-0.1v-0.2l-0.3-0.1
		l-0.2,0.1l0-0.3l0.1-0.2l0-0.1l-0.2-0.3l-0.4-0.1l-0.3,0.1l-0.3,0.2l-0.1,0.1l0.1,0.6l-0.3,0.2l-0.4-0.1l-0.2-0.2l0-0.4l0.1-0.7
		l0.6-1.1l0.3-0.5h2.5l1.2-0.2l0.2-0.2l0-0.7l-0.8-3l0.1-0.3l-0.2-0.5l0-1.1l0.1,0l0-0.2l-0.3-0.2l0-0.6l-0.4-0.2l-0.1-1.8l0.1-0.1
		l0-0.5l0.2-0.5h-0.2l-0.3-0.4l0.1-0.2l0.5-0.1l-0.1-0.3h-0.5l-0.2-0.3l0.3,0l0-0.2h-0.2l-0.3-0.5l0.2-0.1l0.1,0.1v-0.8l-0.8-0.1
		V9.9l-0.2,0l-0.3-0.6l0.1-0.4l-0.3-1h0l-0.1-0.3l0.3-0.1l-0.5-0.6l-0.1-0.3l0.1-0.6l0.3-0.5l0.4-0.2l0.5-0.1l-0.2,0.7l0.7,0.2
		l0-0.2l0.9-0.1l0.9,0.2l0.2-0.2l0.2,0.2h0.3l0.2-0.5l0-0.1l-0.5,0l-0.5,0.2l0.2-0.6l0,0.3l0.4,0V4.8l0.5,0l4-1.5l0.5-0.1l0.4,0.1
		l0.8,0.6l0.3,0.7l1.6,6.1l-0.7,0l-0.5,0.1l0.2,0.3l0.3,0.1l-0.2,1.1l0.5,0.7l-0.2,0.8l0.2,0.5l0.7-0.1l0.1,1.2l0.1,0l0,1.1l1,0.3
		l-0.3,0.1l0,0.4l0.3,0.3l-0.5,0.6l0.2,0.6l0.2,0l0.1,0.1l0.3,0.1l0,1l0,0l0.3,0.2l0,1.3l0.1,0l0.1,0.2l0.4,0.1l0.1,0.2l-0.4,0.1
		l-0.1,0.2l0.2,0l0,0.8h0.3l0.1,0.2l0.3,0l0.1,0.5l-0.3,0.1l0.4,0.1l0.6,2.5l-0.5,0l0.2,0.4l0.4,0.1l0.7,2.7l0.9,1.9l0.3,0.2l1.6,1
		L497.3,34.2z M483.5,21.9l-0.2-0.3l0-0.3l-0.1-0.2l-0.8,0.1l-0.1,0.3l-0.4,0.2l0,0.7l-0.3,0l0,0.3l0.2,0.4l0.2-0.2L482,23l0.3-0.2
		l0.6,0.1l-0.3-0.2l0.4-0.2l0.2-0.6L483.5,21.9z M482.3,5.4l0-0.4l-0.6,0.2l0.5,0.3L482.3,5.4z M482.5,6.3l-0.2-0.3l0,0.7l0.2,0.1
		L482.5,6.3z M483.5,19.9l-0.1-0.2l-0.3,0.1l0.2,0.2L483.5,19.9z M489,10.2h-0.7l-0.2,0.3l0.8,0.1L489,10.2z M489,15.1h-0.9v0.3
		l0.1,0.1l0.3,0.1l0.1,0L489,15.1z M490.1,17.2l0-0.3l-0.2,0.3H490.1z M492.3,27.9l-0.6,0l0.3,0.4L492.3,27.9z M493.5,30.5l-0.3-0.1
		l0.2-0.8l-0.2,0l0.2-0.4l-0.4-0.2l-1-0.2l-0.1,0.3l0.8,0.3l0.3,0.2l-0.6-0.1l0.1,1l-0.2,0.2l0.4,0.7l-0.3,0.3l0.1,0.3h0.7l-0.1-0.6
		L493.5,30.5z M493.7,28.7v-0.5l-0.3-0.1l-0.1,0.2H493v0.4l0.3,0.1L493.7,28.7z"/>
</g>
</svg>
